<?xml version="1.0" encoding="utf-8"?>
<!-- Generator: Adobe Illustrator 27.9.0, SVG Export Plug-In . SVG Version: 6.00 Build 0)  -->
<svg version="1.1" id="Layer_1" xmlns="http://www.w3.org/2000/svg" xmlns:xlink="http://www.w3.org/1999/xlink" x="0px" y="0px"
	 viewBox="0 0 563.22 127.06" style="enable-background:new 0 0 563.22 127.06;" xml:space="preserve">
<style type="text/css">
	.st0{fill:url(#SVGID_1_);}
	.st1{fill-rule:evenodd;clip-rule:evenodd;fill:url(#SVGID_00000100371222563255742400000003202770140155047830_);}
	.st2{fill-rule:evenodd;clip-rule:evenodd;fill:url(#SVGID_00000100356283688719828220000015644925081181492643_);}
</style>
<g>
	<g>
		<g>
			<path d="M190.7,119.5v-13.6h2.99l4.24,10.53l4.19-10.53h2.97v13.6h-2.01l0.06-11.47l-4.52,11.47h-1.42l-4.52-11.47l0.06,11.47
				H190.7z"/>
			<path d="M213.6,119.5h-2.36l5.61-13.6h1.97l5.52,13.6h-2.36l-1.29-3.22h-5.83L213.6,119.5z M217.75,108.41l-2.31,6.12h4.65
				L217.75,108.41z"/>
			<path d="M239.6,116.24l-0.04-10.35h2.1v13.6h-1.99l-7.14-10.37l0.04,10.37h-2.1v-13.6h2.05L239.6,116.24z"/>
			<path d="M250.17,119.5h-2.36l5.61-13.6h1.97l5.52,13.6h-2.36l-1.29-3.22h-5.83L250.17,119.5z M254.32,108.41l-2.31,6.12h4.65
				L254.32,108.41z"/>
			<path d="M276.85,109.76c-0.35-0.5-0.77-0.94-1.25-1.29c-0.79-0.57-1.75-0.92-2.88-0.92c-2.58,0-5,1.95-5,5.11
				c0,3.27,2.43,5.18,5,5.18c1.25,0,2.34-0.39,3.15-1.01c0.83-0.62,1.4-1.49,1.6-2.43h-5.88v-1.76H280c0,0.86-0.15,2.04-0.61,3.05
				c-1.25,2.7-4.08,4.06-6.66,4.06c-4.04,0-7.18-3.11-7.18-7.1c0-4.06,3.23-7.02,7.19-7.02c2.93,0,5.57,1.76,6.55,4.12H276.85z"/>
			<path d="M286.6,105.9h7.64v1.91h-5.46v3.86h5.39v1.89h-5.39v4.03h5.46v1.91h-7.64V105.9z"/>
			<path d="M301.17,119.5v-13.6h2.99l4.24,10.53l4.19-10.53h2.97v13.6h-2.01l0.06-11.47l-4.52,11.47h-1.42l-4.52-11.47l0.05,11.47
				H301.17z"/>
			<path d="M322.87,105.9h7.64v1.91h-5.46v3.86h5.39v1.89h-5.39v4.03h5.46v1.91h-7.64V105.9z"/>
			<path d="M346.58,116.24l-0.04-10.35h2.1v13.6h-1.99l-7.14-10.37l0.04,10.37h-2.1v-13.6h2.05L346.58,116.24z"/>
			<path d="M357.93,107.81h-3.14v-1.91h8.45v1.91h-3.14v11.69h-2.18V107.81z"/>
			<path d="M380.95,115.47c0.15,2.04,1.59,2.45,2.31,2.45c1.22,0,2.27-0.96,2.27-2.17c0-1.51-1.29-1.86-3.04-2.5
				c-1.07-0.35-3.45-1.14-3.45-3.69c-0.02-2.54,2.16-3.92,4.3-3.92c1.75,0,3.95,0.96,4.11,3.75h-2.14
				c-0.15-0.74-0.48-1.91-2.05-1.91c-1.11,0-2.07,0.75-2.07,1.91c0,1.32,1.01,1.65,3.21,2.46c1.7,0.72,3.28,1.58,3.28,3.79
				c0,2.21-1.49,4.12-4.41,4.12c-2.71,0-4.45-1.65-4.48-4.28H380.95z"/>
			<path d="M393.65,112.77c0-4.28,3.3-7.13,7.14-7.13c4.08,0,7.16,3.14,7.16,7.06c0,3.92-3.08,7.06-7.18,7.06
				c-4.11,0-7.12-3.22-7.12-6.97V112.77z M395.81,112.7c0,2.83,2.1,5.15,5.02,5.15c2.97,0,4.94-2.48,4.94-5.13
				c0-2.67-1.97-5.17-4.96-5.17c-2.97,0-5,2.39-5,5.13V112.7z"/>
			<path d="M414.63,105.9h7.12v1.91h-4.94v3.97h4.87v1.89h-4.87v5.83h-2.18V105.9z"/>
			<path d="M430.37,107.81h-3.14v-1.91h8.45v1.91h-3.14v11.69h-2.18V107.81z"/>
			<path d="M440.76,105.9h2.21l2.69,10.64l2.68-10.64h1.64l2.71,10.66l2.66-10.66h2.21l-3.76,13.6h-2.01l-2.64-10.31l-2.64,10.31
				h-2.07L440.76,105.9z"/>
			<path d="M464.02,119.5h-2.36l5.61-13.6h1.97l5.52,13.6h-2.36l-1.29-3.22h-5.83L464.02,119.5z M468.17,108.41l-2.31,6.12h4.65
				L468.17,108.41z"/>
			<path d="M480.82,105.9h3.86c2.14,0,3.25,0.29,3.97,0.79c1.13,0.74,1.81,2.15,1.81,3.68c0,0.96-0.28,1.87-0.78,2.59
				c-0.7,0.97-1.59,1.31-2.64,1.49l3.21,5.06h-2.31l-3.74-6.14h0.48c0.94,0,2.08-0.04,2.73-0.59c0.63-0.55,0.94-1.34,0.94-2.22
				c0-0.92-0.44-1.82-1.16-2.3c-0.59-0.37-1.35-0.44-2.32-0.44h-1.86v11.69h-2.18V105.9z"/>
			<path d="M496.79,105.9h7.64v1.91h-5.46v3.86h5.39v1.89h-5.39v4.03h5.46v1.91h-7.64V105.9z"/>
		</g>
	</g>
</g>
<g>
	<path d="M242.67,91.04l22.13-33.67l-21.06-31.82h19.68l11.68,19.4l11.31-19.4H306l-20.78,32.18l23.54,35.86h-19.68l-14.71-24.09
		L260.39,93.6h-34.21l-17.75-32.83h2.85c4.41,0,8.18-0.37,10.48-1.84c2.12-1.38,3.86-4.6,3.86-8.37c0-3.59-1.75-6.44-4.05-7.91
		c-1.93-1.2-4.69-1.84-7.08-1.84h-6.44V93.6h-17.38V25.55h22.25c10.67,0,17.29,1.93,21.06,4.87c5.7,4.41,8.28,11.13,8.28,18.57
		c0,5.24-1.47,9.29-3.4,12.32c-2.3,3.59-5.61,5.89-8.83,7.26L242.67,91.04"/>
	<g>
		<g>
			<g>
				<path d="M9.78,25.55h17.66l9.29,44.23l10.02-44.23h13.33L70.1,69.97l9.29-44.41h17.56L78.93,93.6H63.66L53.27,49.55L43.06,93.6
					H27.34L9.78,25.55z"/>
			</g>
		</g>
	</g>
</g>
<g>
	<linearGradient id="SVGID_1_" gradientUnits="userSpaceOnUse" x1="432.7561" y1="118.0735" x2="432.7561" y2="22.8321">
		<stop  offset="0" style="stop-color:#F99D1C"/>
		<stop  offset="0.0212" style="stop-color:#F99F1C"/>
		<stop  offset="0.2846" style="stop-color:#F7B419"/>
		<stop  offset="0.5406" style="stop-color:#F7C314"/>
		<stop  offset="0.7837" style="stop-color:#F7CC10"/>
		<stop  offset="1" style="stop-color:#F7CF0E"/>
	</linearGradient>
	<path class="st0" d="M319.72,72.03c0.74,10.21,7.91,12.23,11.49,12.23c6.07,0,11.31-4.78,11.31-10.85c0-7.54-6.44-9.29-15.17-12.51
		c-5.33-1.75-17.2-5.7-17.2-18.48c-0.09-12.69,10.76-19.59,21.43-19.59c8.74,0,19.68,4.78,20.51,18.76h-10.67
		c-0.74-3.68-2.39-9.56-10.21-9.56c-5.52,0-10.3,3.77-10.3,9.56c0,6.62,5.06,8.28,16,12.32c8.46,3.59,16.37,7.91,16.37,18.94
		s-7.45,20.6-21.98,20.6c-13.52,0-22.16-8.28-22.35-21.43H319.72z M409.49,92.17h-9.56v-8.74c-3.49,6.71-10.67,10.21-18.58,10.21
		c-16.09,0-25.66-12.51-25.66-26.48c0-15.27,11.13-26.48,25.66-26.48c9.93,0,16.28,5.52,18.58,10.3v-8.84h9.56V92.17z M365.26,67.34
		c0.09,7.45,5.33,17.38,17.47,17.38c7.63,0,13.06-4.23,15.54-9.93c1.1-2.3,1.66-4.87,1.75-7.45c0.09-2.57-0.37-5.15-1.47-7.45
		c-2.39-5.79-8-10.3-16-10.3c-10.48,0-17.29,8.28-17.29,17.66V67.34z M419.83,49.59h-6.81v-7.46h6.81v-3.39
		c0-15.08,11.68-15.82,18.76-15.91v7.54c-3.22,0.09-9.2,0.09-9.2,8.83v2.93h9.2v7.46h-9.2v42.58h-9.56V49.59z M445.86,70.19
		c0.46,10.12,9.29,15.27,16.83,15.27c6.71,0,11.68-3.22,14.44-8.46h9.93c-2.39,5.52-5.89,9.66-10.12,12.41
		c-4.23,2.85-9.2,4.23-14.25,4.23c-16.37,0-26.48-13.15-26.48-26.39c0-14.35,11.22-26.58,26.39-26.58c7.17,0,13.7,2.67,18.48,7.36
		c5.89,5.98,8.37,13.79,7.54,22.16H445.86z M479.14,62.74c-0.46-6.62-7.08-14.07-16.55-13.89c-9.75,0-16.09,7.08-16.55,13.89H479.14
		z M518.48,42.13l13.79,36.6l13.98-36.6h10.3l-30.52,75.94h-10.21l11.48-27.39l-16.19-41.09l-6.98,0v42.58h-9.56V49.59h-9.01v-7.46
		h9.01V24.12h9.56v18.01L518.48,42.13z"/>
	<g>
		<g>
			<g>
				
					<linearGradient id="SVGID_00000004525366708690995480000014473951053437562041_" gradientUnits="userSpaceOnUse" x1="-92.8095" y1="740.6773" x2="-27.7141" y2="740.6773" gradientTransform="matrix(0.0312 0.9995 -0.9995 0.0312 884.5823 91.3471)">
					<stop  offset="0" style="stop-color:#F99D1C"/>
					<stop  offset="0.0212" style="stop-color:#F99F1C"/>
					<stop  offset="0.2846" style="stop-color:#F7B419"/>
					<stop  offset="0.5406" style="stop-color:#F7C314"/>
					<stop  offset="0.7837" style="stop-color:#F7CC10"/>
					<stop  offset="1" style="stop-color:#F7CF0E"/>
				</linearGradient>
				<path style="fill-rule:evenodd;clip-rule:evenodd;fill:url(#SVGID_00000004525366708690995480000014473951053437562041_);" d="
					M164.8,67.42c1.46-2.26,3.01-6.16,3.43-9.55c0.09-0.64,0.17-1.54,0.24-2.03c0.19,0.63-0.41,3.08-0.36,3.6
					c0.06-0.18,0.12-0.66,0.17-0.66c-0.44,2.67-1.29,4.88-2.45,7.22c-0.75,1.56-1.97,3.24-2.16,3.75c0.06-0.02,0.27-0.33,0.38-0.45
					c-0.01,0.1,0,0.11,0.16-0.01c1.03-1.03,2.95-4.45,3.7-7.12c0.83-2.35,1.32-5.92,1.24-8.47c-0.06-1.49-0.15-3.35-0.55-4.77
					c-0.27-1.55-0.56-2.53-1.14-4.16c0.02,0.02,0.25,0.52,0.18,0.47c0.13,0.32,0.31,0.77,0.5,1.42c0.16,0.45,0.34,0.74,0.52,1.63
					c0.1,0.13,0.17,0.28,0.22,0.16c0.17,0.68,0.29,1.36,0.4,1.89c0.5,3.53,0.3,8.26-1.22,12.62c0.03-0.01-0.02,0.12,0.01,0.11
					c0.13-0.29,0.18-0.49,0.34-0.85c-0.03,0.22,0.03-0.01,0.06-0.09c0.07-0.07-0.01,0.21,0.02,0.22c0.17-0.28,0.43-0.98,0.41-0.52
					c-0.26,0.9-0.09,1.11-0.49,2.24c0.08-0.08,0.2-0.32,0.3-0.45c-0.16,0.73-0.3,1.54,0.15,0.73c-0.03,0.16-0.18,0.56-0.17,0.62
					c0.39-0.89,0.62-1.05,1.05-2.45c0.05-0.06,0.16-0.42,0.19-0.39c-0.24,1.03-0.61,2.15-0.77,2.81c1.15-2.52,1.9-5.93,2.06-8.81
					c0.07-0.81,0.15-1.73,0.06-2.6c0.08-1.84-0.46-4.6-0.65-5.92c0.23-0.76-1.63-6.19-3.26-8.54c-0.73-1.29-1.99-2.84-2.32-3.34
					c2.1,2.37,4.34,6.47,5.38,10.12c0.07,0.21,0-0.23,0.12,0.2c0.48,1.6,0.7,2.98,0.92,4.3c0,0.5,0.11,1.11,0.18,1.97
					c0.24,3.02-0.27,8.1-1.76,11.86c-0.05,0.18,0.06,0.02-0.05,0.33c-0.33,0.96-0.61,1.41-0.76,1.95c0.24-0.51,0.41-0.79,0.61-1.18
					c1.06-2.89,1.34-3.67,1.77-6.25c0.11-0.3,0.25-1.48,0.29-2.08c0.31-2.43,0.16-5.73-0.39-8.37c-0.05-0.23-0.11-0.31-0.18-0.64
					c-1.04-4.1-1.88-6.15-3.9-9.47c0-0.04-0.19-0.33-0.13-0.31c0.11,0.2,0.29,0.41,0.15,0.17c-0.03-0.02-0.12-0.14-0.13-0.18
					c-0.02-0.1,0.21,0.3,0.22,0.26c-0.18-0.34-0.38-0.66-0.52-0.85c0.06,0.09,0.07,0.12-0.02,0.01c-0.42-0.65-0.84-1.16-1.86-2.36
					c-0.01-0.05,0.15,0.07-0.1-0.21c0.1,0.17-0.1-0.05-0.33-0.3c-0.37-0.43,0.09-0.01-0.32-0.45c-0.62-0.48-1.17-1.17-2.47-2.25
					c-0.43-0.4-0.3-0.38,0.08-0.09c0.23,0.25,0.44,0.38,0.64,0.62c0.21,0.14,0.89,0.73,1.3,1.22c0.15,0.13,0.32,0.28,0.57,0.53
					c0.6,0.66,1.78,2.05,2.47,3.03c0.26,0.33,0.72,0.97,0.6,0.68c-0.11-0.26-0.4-0.49-0.46-0.63c0.02,0,0.02-0.04-0.03-0.12
					c0.7,0.85,1.34,2.08,1.89,2.93c0.07,0.15,0.02,0.14,0.17,0.42c1.77,3.62,2.42,5.88,3.02,9.48c0.02,0.04,0.05,0.03,0.09,0.33
					c-0.01,0.04-0.05-0.16-0.03,0c0.12,0.32-0.16-1.53-0.22-1.79c-0.03-0.18-0.04-0.06-0.07-0.21c0-1.18-1.12-4.7-2.23-7.08
					c-0.19-0.32-0.83-1.51-1.02-1.88c0.44,0.59,0.82,1.34,1.23,2.03c0.3,0.69,0.77,1.68,1.02,2.28c0.12,0.32,0.43,1.42,0.58,1.72
					c0.07,0.42,0.3,1.11,0.28,1.33c0.11,0.48,0.14,0.5,0.22,0.76c0,0.16,0.08,0.49,0.18,1c-0.02-0.31,0.08-0.21,0.03-0.58
					c-0.19-0.81-0.27-1.35-0.48-2.11c-0.34-1.23-0.84-2.46-1.39-3.86c0.56,0.67,1.69,4.33,1.86,5.5c0.28,1.04,0.3,1.68,0.49,2.35
					c-0.03-2.14-1.72-6.96-2.27-8.26c0.35,0.58,0.82,1.73,1.01,2.19c0.05-0.11-0.56-1.48-0.67-1.85c0.45,1.03,0.78,1.9,1.13,2.91
					c0.03-0.17-0.47-1.47-0.5-1.42c0-0.12-0.18-0.54-0.33-0.99c0.1,0.1,0.41,0.9,0.55,1.28c0.59,1.58,1.08,3.66,1.27,5.05
					c0.05,0.05,0.21,0.64,0.2,0.44c-0.02-0.01-0.03-0.03-0.06-0.22c0.12,0.21,0.11-0.65-0.2-1.74c0.02,0.09,0.05,0.22,0.04,0.23
					c-0.3-1.49-0.58-2.28-1-3.71c0.03-0.01,0.19,0.52,0.25,0.65c0.08,0.07,0.02-0.17,0.07-0.15c0.79,2.32,1.15,4.59,1.45,6.28
					c0.12,1.03,0.17,2.56,0.23,3.4c-0.02-0.31-0.01-0.42,0.02-0.35c-0.06-1.66-0.13-2-0.22-3.16c0.01-0.16,0.08,0.06,0.12-0.02
					c0.26,1.92,0.37,3.64,0.38,5.07c0.02-0.54,0.07,0.13,0.1-0.83c0.03,0.01,0.05,0.18,0.07,0.48c0-0.28-0.01-0.44,0-0.83
					c0.04-0.23,0.06,0.11,0.1-0.12c-0.06,0.04,0-0.53,0.03-0.24c-0.01-0.36-0.08-0.8-0.07-0.96c0.02-0.37,0.19-0.23,0.25,0.47
					c0.06,1.09-0.02,1.81,0.01,2.29c0.06-0.25,0.02-0.92,0.05-1.21c0,0.14,0.01,0.19,0.02,0.24c0.01-0.49-0.04-1.53-0.01-1.93
					c-0.03-0.05-0.04-0.52-0.08-0.6c-0.01-0.47-0.04-1.15-0.03-1.45c0.18,0.39,0.33,1.91,0.31,3.38c0.06-0.16,0.05,0.48,0.09,0.49
					c-0.01-0.34,0.07-0.35,0.03-0.61c0.01-2.34-0.37-5.96-1.4-9.38c0.01,0.13-0.25-0.73-0.29-0.93c-0.34-0.88-0.77-2.04-1.02-2.62
					c-0.26-0.67-0.93-1.99-1.24-2.53c-2.63-4.77-6.43-8.9-11.11-11.87c-1.31-0.77-2.84-1.65-4.33-2.32
					c-0.23-0.1-0.35-0.13-0.58-0.22c-0.53-0.24-1.19-0.48-1.83-0.72c-0.76-0.24-1.33-0.46-2-0.63c-0.12-0.03-1.37-0.36-1.07-0.28
					c-0.85-0.18-1.66-0.35-2.42-0.45c-0.35-0.08-0.87-0.17-1.33-0.23c-0.05,0.01,0.17,0.05-0.01,0.03c-1.4-0.17-2.02-0.17-3.31-0.25
					c-0.56,0.02-1.42,0.06-2.22,0.08c-1.71,0.08-3.77,0.33-5.35,0.73c-0.54,0.1-0.71,0.13-1.1,0.19c-0.53,0.19-1.88,0.56-2.59,0.8
					c-2.56,0.91-4.98,2.14-7.16,3.55c-3.53,2.28-6.8,5.57-9.06,8.93c-3.83,5.55-5.67,12.12-5.67,18.17
					c-0.01,0.28,0.03,0.14,0.03,0.37c-0.04,0.17-0.02,0.63-0.02,0.98c0.15,3.81,0.99,7.81,2.58,11.57c0.66,1.54,1.3,2.86,1.96,3.82
					c0.16,0.31-0.14-0.16,0.02,0.14c0.17,0.22,0.97,1.59,1.17,1.73c0.13,0.21,0.07,0.19,0.32,0.53c0.86,1.16,1.55,2.2,2.94,3.63
					c0.12,0.08,0.02-0.1,0.41,0.28c2.11,2.08,3.64,3.26,5.73,4.56c2.42,1.63,5.45,2.97,8.45,3.81c3.24,0.91,6.67,1.35,10.02,1.24
					c0.23-0.02,0.43-0.04,0.73-0.06c0.99-0.02,1.71-0.12,2.55-0.25c1.98-0.26,4.18-0.77,5.57-1.29c-1.47,0.43-2.72,0.81-4.26,1
					c-1.83,0.32-3.82,0.49-5.93,0.46c-0.98,0-2.02-0.04-2.91-0.13c-5.6-0.44-12.06-3.04-15.85-6.08c-0.03-0.1,0.13-0.01,0.28,0.03
					c-0.42-0.38-1.19-0.92-1.58-1.32c-1.11-0.87-2.21-1.93-3.26-3.07c-0.28-0.3-0.7-0.73-0.78-0.92c0.53,0.62,0.79,0.89,1.23,1.33
					c-0.33-0.41-1.09-1.2-1.48-1.6c-0.53-0.67-0.89-1.09-1.29-1.61c-0.08-0.21-0.78-1.12-0.83-1.34c-0.51-0.73-1.31-2.09-1.24-2.21
					c0.66,1.14,1.92,3.21,3.01,4.5c0.33,0.43,0.74,0.8,1.01,1.21c0.52,0.55,2.04,2.2,3.02,2.93c0.21,0.18,0.14,0.17,0.43,0.41
					c4.27,3.54,9.71,6.17,15.45,7.06c4.43,0.75,9.53,0.41,13.3-0.75c1.12-0.24,2.59-0.79,3.96-1.34c0.28-0.13,0.43-0.24,0.86-0.43
					c0.49-0.24,0.45-0.16,0.88-0.38c0.18-0.12,0.4-0.25,0.28-0.25c-0.55,0.26-1.44,0.62-1.56,0.59c-1.18,0.51-2.12,0.79-3.11,1.16
					c-0.78,0.17-2.49,0.72-3.46,0.81c0.58-0.28-2.27,0.38-2.94,0.3c2.53-0.24,5.86-1.08,7.66-1.82c-0.66,0.19-1.1,0.31-1.93,0.54
					c-0.4,0.16-0.88,0.27-0.99,0.36c-0.15,0.02-0.54,0.11-0.69,0.16c-0.12,0.02-0.12-0.01-0.36,0.04c-1.2,0.27-3.32,0.6-4.53,0.63
					c0.25-0.06,1.4-0.11,1.63-0.2c-0.54,0.06-1.43,0.14-1.98,0.2c-0.14,0.05,0.38-0.02,0.24,0.03c-1.3,0.12-2.59,0.16-3.88,0.04
					c-0.06-0.04,0.64,0.04,0.71,0c-7.08-0.16-14.53-3.03-19.93-7.92c-2.44-2.16-4.61-5-5.98-7.27c-0.57-1.07-1.17-2.08-1.56-3.05
					c-0.65-1.14-1.39-3.31-1.94-5.56c-0.06-0.27-0.01-0.23-0.1-0.58c-0.46-1.98-0.71-4.54-0.7-5.96c0.02,0.25,0.06,0.34,0.04-0.12
					c-0.03-0.47-0.06,0.3-0.07,0c-0.01-0.72-0.04-1.96,0.09-2.59c0.06-0.01-0.02,0.94-0.02,1.41c0.18-0.01,0.16-2.41,0.46-4.2
					c0.25-1.76,0.74-3.73,1.16-4.9c0.25-0.76,0.5-1.54,0.83-2.32c0.15-0.33,0.31-0.65,0.45-0.96c0.61-1.26,1.18-2.47,1.79-3.29
					c-1.33,2.29-2.46,4.57-3.14,7.16c0.04-0.12,0.06-0.14,0.02,0c-0.25,1.03-0.5,1.57-0.71,2.47c-0.43,2.13-0.74,4.97-0.69,7.33
					c-0.05-0.12-0.02-0.96-0.05-1.05c-0.12,0.77,0,2.35,0.18,3.98c0.02,0.23-0.08-0.06-0.01,0.36c0.05,0.29,0.09,0.13,0.15,0.69
					c-0.07-0.09-0.03,0.21,0.03,0.59c0.21,0.59,0.71,3.14,1.4,4.97c0.04,0.16-0.03,0.08,0.01,0.24c0.4,0.94,0.63,1.68,1.15,2.71
					c0.15,0.27,0.14,0.1,0.34,0.49c0.17,0.51,0.55,1.25,0.93,1.76c0.27,0.54,0.7,1.17,1.03,1.71c0.14,0.19,0.14,0.12,0.37,0.46
					c1.47,2.15,3.41,4.26,5.14,5.75c0.65,0.45,2,1.56,3.03,2.2c-0.56-0.45-2.29-1.67-2.45-1.96c0.06,0.01,0.39,0.31,0.48,0.33
					c-0.41-0.37-0.6-0.55-1.04-0.93c-1.29-1.2-3.39-3.36-4.27-4.73c-0.26-0.32-0.79-1.07-1.08-1.5c-0.16-0.27-0.21-0.4-0.4-0.71
					c-1.25-2.02-1.28-2.49-0.95-2.12c0.33,0.7,0.33,0.49,0.61,0.98c-0.04-0.02-0.02,0.04,0.07,0.22c0.13,0.19,0.2,0.25,0.3,0.36
					c1.17,1.86,1.88,2.8,3.39,4.61c0.1,0.06,0.37,0.34,0.53,0.45c-1.43-1.56-2.28-2.7-3.35-4.34c-0.35-0.69-1.32-2.34-1.67-3.24
					c0.19,0.35,0.37,0.69,0.42,0.68c0.2,0.72,1.31,2.44,1.85,3.26c0.21,0.23,0.04-0.1,0.12-0.08c0.1,0.13,0.13,0.14,0.22,0.26
					c0.62,0.93,0.74,1.04,1.49,2c-0.13-0.2-0.38-0.62-0.69-1.04c-1.21-1.58-2.76-4.2-3.32-5.49c-0.46-1.1-1.12-2.78-1.54-4.24
					c-0.18-0.75-0.15-0.9-0.29-1.66c-0.28-1.35-0.72-3.51-0.73-5.1c-0.07-0.25-0.04-0.98-0.1-1.34c0.01-0.2,0.03-0.35,0.05-0.45
					c0.04,0.33,0.14,1.25,0.14,1.68c0.05-0.11-0.07-1.42,0-1.56c0.03-0.02,0.03,0.17,0.04,0.34c0.03,2.43,0.49,6.13,1.51,8.97
					c0.08,0.1,0.24,0.74,0.37,1.05c0.13,0.19,0.34,0.73,0.52,1.11c0.08,0.28,0.37,0.94,0.58,1.32c-0.13-0.28-0.23-0.59-0.04-0.22
					c-0.21-0.49-0.38-0.91-0.54-1.34c-0.09-0.21-0.08-0.08-0.16-0.29c-0.04-0.14-0.05-0.22-0.08-0.33
					c-0.17-0.45-0.21-0.36-0.36-0.81c-0.13-0.53-0.39-1.19-0.55-1.92c-0.05-0.06-0.13-0.31-0.21-0.52c-0.15-0.77-0.34-1.84-0.55-2.6
					c-0.31-2.2-0.47-4.58-0.28-6.86c-0.06,1.39-0.09,3.65,0.12,4.42c-0.22-2.55,0.04-5.65,0.37-7.71c0.08-0.22,0.21-0.89,0.28-1.07
					c-0.05,0.24,0.04,0.05,0.05,0.12c0.12-0.56,0.21-0.54,0.33-0.94c-0.1,0.72-0.48,2.28-0.65,3.78c0.04,0.04,0.07-0.01,0.11-0.1
					c-0.07,0.54-0.03,0.62-0.09,1.09c-0.1,0.55-0.1,1.23-0.1,1.85c0.04-0.12,0.03,1.32,0.06,1.74c0-1.63-0.02-4.23,0.56-6.71
					c0.14-1.35,0.98-3.81,1.54-5.32c0.18-0.31,0.38-0.78,0.57-1.18c-0.01,0.18,0.4-0.68,0.2-0.15c1.04-2.03,1.34-2.66,2.57-4.39
					c-0.2,0.44,0.92-1.33,1.28-1.61c-0.2,0.31-0.49,0.79-0.95,1.31c-0.08,0.18-0.27,0.5-0.35,0.68c-0.2,0.29-0.1,0.02-0.35,0.41
					c-0.67,1.01-0.73,1.4-1.33,2.34c-0.01,0.07-0.07,0.2-0.17,0.4c-0.91,1.75-1.31,2.86-1.74,4.16c-0.1,0.32-0.11,0.22-0.21,0.61
					c-0.18,0.68-0.3,1.04-0.45,1.77c0.02,0.04,0.05,0.07,0.01,0.33c-0.32,0.9-0.51,2.63-0.68,3.9c-0.13,2.54-0.07,5.37,0.59,8.42
					c0.08,0.33,0.12,0.36,0.21,0.72c0.03,0.38,0.21,0.74,0.3,1.14c0.09,0.39,0.17,1.03,0.66,2.15c-0.07-0.27-0.21-0.74-0.22-0.94
					c-0.1-0.33-0.1-0.15-0.21-0.5c-0.25-0.89-0.64-2.3-0.69-3.13c0.02,0.04,0.08,0.3,0.09,0.2c-0.12-0.75-0.28-1.09-0.27-1.57
					c0.03,0.05,0.04,0.16,0.08,0.3c0.35,2.19,0.77,3.49,1.5,5.53c0.11,0.28,0.09,0.1,0.23,0.48c0.08,0.21,0.07,0.31,0.21,0.6
					c1.26,3,3.56,6.49,5.88,8.61c-0.42-0.42-0.88-0.93-1.35-1.49c-0.28-0.31-0.62-0.7-0.89-1.05c-1.53-1.96-3.04-4.62-3.88-6.9
					c0.14,0.15,0.89,2.01,1.34,2.76c0.33,0.53,0.66,1.17,1.06,1.82c1.04,1.65,3.22,4.39,4.83,5.68c0.14,0.14,0.17,0.2,0.37,0.37
					c0.62,0.45,1.87,1.58,2.95,2.2c0.67,0.49,1.38,0.94,2.06,1.25c0.8,0.56,1.94,1.05,3.02,1.44c0.26,0.12,0.23,0.15,0.57,0.27
					c0.43,0.08,1.57,0.59,1.91,0.57c-0.6-0.23-1.17-0.42-1.78-0.61c-0.1-0.06-0.45-0.18-0.57-0.26c-4.86-1.97-8.25-4.55-11.79-8.92
					c-0.04-0.09-0.16-0.25-0.08-0.21c-0.94-1.24-1.95-3.02-2.77-4.55c-0.29-0.73-0.88-1.91-0.99-2.42c-1.18-2.8-1.81-6.77-1.81-9.83
					c0.02-6.94,2.86-14.4,8.26-19.62c0.15-0.16,0.2-0.24,0.43-0.46c1.74-1.67,4.09-3.27,6.05-4.33c0.3-0.13,0.32-0.1,0.68-0.28
					c0.11-0.07,0.31-0.18,0.55-0.3c0.25-0.07,0.52-0.16,0.44-0.04c2.11-1.03,5.78-2.03,8.11-2.26c0.73-0.11,2.36-0.19,3.53-0.17
					c1.62,0.01,2.4,0.2,1.65,0.32c-0.35-0.02-0.47-0.07-0.93-0.08c-0.18,0.01,0.01,0.05-0.21,0.05c-0.19,0-0.07-0.04-0.31-0.04
					c-0.39,0.04-1.06,0.05-1.76,0.06c-0.31,0.03-0.43,0.09-0.61,0.14c0.82-0.04,1.93-0.08,2.67-0.03c0.08-0.03,0.25-0.06,0.52-0.05
					c1.57,0.17,4.24,0.47,6.26,1.09c0.31,0.09,0.64,0.19,0.89,0.25c0.95,0.36,3.86,1.45,4.84,2.21c0.04,0.01,0.13,0.04,0.28,0.13
					c0.05,0.06,0.25,0.19,0.13,0.18c0.42,0.25,0.56,0.37,0.67,0.47c-0.03,0.06-0.17-0.01,0.02,0.16c1.94,1.21,3.29,2.32,4.78,3.74
					c0.29,0.38,0.8,0.82,1.05,1.23c0.51,0.5,0.92,1.05,1.36,1.64c0.87,1.18,1.64,2.32,2.32,3.56c0.91,1.7,1.54,3.3,2.09,5.06
					c0.03,0.17,0.08,0.4,0.05,0.41c-0.52-1.52-1.13-3.15-2.25-5.29c-0.09-0.15-0.12-0.16-0.23-0.34c-0.34-0.67-0.78-1.38-1.32-2.13
					c-0.4-0.67-1.01-1.45-1.61-2.18c-1.08-1.33-2.37-2.67-3.58-3.52c-0.41-0.37-1.22-0.99-1.57-1.27c-2.48-1.57-4.3-2.71-7.28-3.62
					c-0.69-0.3-1.97-0.58-3.22-0.83c-0.26-0.09-1.48-0.29-1.9-0.28c-0.33-0.05-0.43-0.1-0.8-0.14c-0.98-0.04-1.91-0.12-2.93-0.1
					c-0.82,0.01-1.99,0.14-2.92,0.27c-2.15,0.24-4.7,0.95-5.95,1.54c-2.03,0.68-4.33,1.95-6.28,3.41c-1.58,1.15-3.24,2.62-4.19,3.92
					c-0.08,0.08,0-0.04-0.22,0.21c0.08,0-1.14,1.46-1.42,1.84c-0.33,0.54-1.32,2.01-1.8,2.91c-0.01-0.01,0.05-0.12,0.02-0.11
					c-0.11,0.22-0.37,0.63-0.37,0.72c0.05-0.06,0.16-0.28,0.18-0.25c-0.21,0.37-0.23,0.46-0.39,0.7c0,0.07-0.08,0.27-0.23,0.56
					c-0.17,0.38-0.2,0.32-0.34,0.62c-0.3,0.67-0.34,0.95-0.45,1.34c-0.38,0.97-0.77,2.3-1.05,3.67c-0.07,0.26-0.13,0.31-0.21,0.68
					c0.05,0.03,0,0.46-0.06,0.91c-0.04,0.02-0.09,0.25-0.13,0.39c-0.19,1.56-0.34,4.11-0.03,6.53c0.05,0.21,0.1,0.41,0.15,0.49
					c0.09,0.83,0.31,1.7,0.47,2.56c-0.05-0.06-0.02,0.11-0.04,0.11c0.26,0.99,0.35,1.39,0.64,2.22c0.03,0-0.02-0.31,0.12,0.07
					c0,0.2,0.21,0.61,0.34,1.05c0.42,0.87,0.63,1.37,1.18,2.55c0.04,0.04,0.07,0.02,0.14,0.15c0.05,0.14,0.26,0.48,0.31,0.63
					c0.08,0.07,0.13,0.07,0.27,0.3c0.12,0.26,0.58,1.03,0.68,1.1c-0.34-0.56-0.37-0.76-0.44-1.01c0.89,1.34,1.78,2.86,2.83,3.92
					c0.38,0.28,0.48,0.34,1.15,0.95c0.47,0.46,1.05,0.96,1.19,1.02c0.08,0.02-0.25-0.36-0.33-0.51c-0.02-0.05,0.1,0.06,0.1,0.03
					c0-0.06-0.27-0.4-0.26-0.43c0.07-0.28,2.56,2,4.19,3.07c0.78,0.45,1.64,1,2.26,1.24c2.36,1.21,4.36,1.81,7.22,2.33
					c0.22,0.03,0.18-0.01,0.48,0.04c1.13,0.22,1.8,0.18,2.74,0.21c0.52,0.01,0.95,0.02,1.33,0.01c0.2-0.01,0.32-0.05,0.56-0.07
					c1.09-0.07,2.46-0.18,3.75-0.43c1.38-0.27,2.55-0.69,3.88-1.13c0.24-0.09,0.2-0.12,0.51-0.24c0.93-0.32,2.24-0.98,2.96-1.41
					c1.82-1,3.89-2.58,5.65-4.37c0.23-0.28,0.46-0.57,0.79-0.93c-0.38,0.37-0.77,0.81-1.08,1.15c-0.9,0.84-1.9,1.84-2.84,2.38
					c0.1-0.09-0.05-0.03-0.12-0.01c-0.8,0.68-1.99,1.34-2.95,1.92c-0.3,0.16-0.33,0.14-0.59,0.27c-2.03,1.09-5.03,2.1-7.35,2.34
					c-0.33,0.04-0.22,0.07-0.56,0.11c0.12-0.03,0.12-0.06-0.09-0.03c-0.33,0.14-1.98,0.25-2.43,0.2c-0.44,0.05-1.59,0.01-2.06-0.05
					c-0.46,0.04-0.93,0.02-1.87-0.13c-1.06-0.04-2.91-0.53-3.46-0.85c-0.37-0.12-0.44-0.09-0.82-0.21c-1.13-0.48-2.27-0.8-3.14-1.26
					c-0.04,0.04,0.41,0.25,0.47,0.33c-0.28-0.13-0.68-0.26-0.95-0.42c0.2,0.05,0.16,0,0.06-0.12c-0.54-0.28-0.81-0.4-1.33-0.71
					c-0.16-0.05,0.09,0.14-0.13,0.04c-0.51-0.31,0.06-0.05-0.19-0.24c-0.47-0.21-2.25-1.58-2.3-1.5c-0.01,0.01,0.34,0.29,0.2,0.21
					c-0.33-0.23-0.33-0.27-0.4-0.26c-0.2-0.19,0.02-0.08-0.23-0.32c-0.74-0.52-1.1-1.03-1.69-1.51c-0.09-0.11-0.02-0.09-0.23-0.31
					c-0.19-0.21-0.24-0.24-0.4-0.4c-0.05-0.01-0.08,0.01-0.33-0.21c-0.45-0.49-0.67-0.8-0.61-0.84c-0.72-0.8-1.4-1.78-1.69-2.37
					c0.09,0.09,0.13,0.09,0.23,0.18c0.1,0.19,0.31,0.43,0.44,0.61c-0.03,0.09,0.53,0.82,0.76,1.06c0.81,1.01,1.37,1.67,2.1,2.27
					c0.54,0.55,0.86,0.79,1.23,1.15c0.05,0,0.09-0.02,0.26,0.13c1.42,1.13,2.75,1.96,4.39,2.84c0.54,0.23,1.45,0.62,2.22,0.96
					c0.39,0.1,0.52,0.19,1.23,0.43c1.46,0.44,3.7,0.93,4.81,0.98c2.53,0.31,4.96,0.21,7.81-0.36c0.18-0.04,0.17-0.06,0.35-0.1
					c0.67-0.08,1.76-0.49,2.66-0.74c0.14-0.06,0.34-0.14,0.42-0.19c1.08-0.39,2.28-0.91,3.07-1.42c1.06-0.47,1.65-1.02,2.5-1.51
					c0.24-0.25,0.79-0.64,1.33-1.11c-0.07,0.07-0.19,0.17-0.11,0.16c1.28-1.05,2.49-2.23,3.15-3.13c-0.49,0.51-0.77,0.91-1.24,1.32
					c-0.14,0.18-0.9,0.98-0.99,0.93c0.5-0.41,0.49-0.49,0.62-0.67c0.54-0.48,0.91-1,1.32-1.48c0.5-0.53,1.29-1.55,1.55-1.99
					c-0.83,1.12-2.08,2.72-3.07,3.4c-0.07,0.12-0.21,0.28-0.5,0.52c-0.09,0.07-0.14,0.09-0.16,0.08c-0.2,0.17-0.22,0.22-0.32,0.32
					c-0.93,0.63-1.96,1.59-3.47,2.39c-0.09,0.01-0.35,0.12-0.21-0.01c0.87-0.38,2.06-1.29,2.89-1.93c-0.03-0.02-0.02-0.06,0.1-0.17
					c0.1-0.07,0.09-0.04,0.16-0.08c0.3-0.25,0.46-0.41,0.67-0.59c0.82-0.7,1.46-1.3,1.97-1.93c0.22-0.27,0.18-0.3,0.41-0.59
					c0.29-0.33,1.01-1.03,1.08-1.3c-0.13,0.08-0.54,0.69-0.65,0.73c0.12-0.19,0.55-0.69,0.49-0.74c-1.03,1.5-2.98,3.48-4.37,4.62
					c-3.24,2.45-6.18,3.81-9.86,4.63c-0.21,0.03-0.17-0.01-0.45,0.05c-0.87,0.29-1.87,0.23-3.21,0.32
					c-0.07-0.03-0.25-0.05-0.54-0.05c-0.47,0.02-0.9,0-1.25,0.03c0.02-0.01,0.14-0.01-0.09-0.03c-1.26-0.03-2.45-0.2-3.39-0.32
					c-0.01,0.03,0.36,0.13-0.01,0.06c-0.77-0.28-2.07-0.45-3.55-0.99c-0.2-0.07-0.24-0.05-0.44-0.12c-2.11-0.73-5.02-2.38-6.85-3.81
					c-0.62-0.55-1.63-1.44-2.1-1.88c-0.13-0.15-0.18-0.24-0.35-0.42c-1.49-1.48-2.72-3.37-3.57-4.8c-0.12-0.23-0.15-0.35-0.27-0.58
					c-0.86-1.51-1.76-4.08-2.22-6.07c-0.41-2.15-0.74-5.23-0.38-7.76c0.11-0.8,0.18-1.27,0.23-1.73c0.04-0.17,0.07-0.22,0.12-0.44
					c0.01-0.14,0.02-0.26,0.03-0.37c0.03-0.1,0.06-0.07,0.13-0.35c0.21-0.97,0.56-1.97,0.69-2.48c0.1-0.26,0.15-0.3,0.28-0.68
					c0.48-1.55,1.82-3.79,2.79-5.29c0.15-0.23,0.18-0.22,0.35-0.44c0.12-0.23,0.45-0.62,0.65-0.9c0.49-0.49,1.16-1.31,1.76-1.9
					c1.6-1.62,3.69-3.14,5.77-4.28c0.97-0.48,2.39-1.13,2.95-1.35c0.18-0.06,0.16,0,0.45-0.11c2.84-1,5.33-1.34,8.29-1.38
					c0.05-0.04,0.22-0.05,0.47-0.06c0.53,0,1.83,0.15,2.04,0.12c-0.55-0.06-0.51-0.06-0.83-0.06c-0.02-0.02-0.15-0.03-0.19-0.04
					c0.2-0.08,1.14,0.12,1.49,0.1c0.62,0.13,2.16,0.32,2.73,0.57c-0.23-0.03-0.59-0.15-0.73-0.14c0.71,0.16,0.85,0.19,1.45,0.34
					c0.16,0.07,0.41,0.18,0.41,0.23c1.07,0.27,2.04,0.67,3.09,1.02c0.31,0.16,0.75,0.37,0.82,0.44c0.17,0.11-0.06,0.01-0.03,0.06
					c0.43,0.25,1.4,0.79,1.69,0.96c0.12,0.25-0.56-0.07-0.82-0.05c0.32,0.19,0.68,0.4,0.95,0.55c0.15,0.17-0.21,0,0.07,0.24
					c0.59,0.37,1.32,1.02,2.19,1.61c0.17,0.2,1.41,1.24,1.44,1.24c0.57,0.58,1.06,1.08,1.66,1.79c0.18,0.19,0.16,0.09,0.4,0.37
					c1.19,1.49,1.96,2.64,2.84,4.4c0.02,0.13-0.19-0.36-0.16-0.22c0.12,0.25,0.23,0.45,0.3,0.55c-0.03-0.06-0.08-0.16-0.07-0.17
					c0.5,0.92,0.9,1.8,1.19,2.83c-0.04-0.05-0.1-0.25-0.15-0.33c0.09,0.22,0.16,0.46,0.23,0.59c-0.12-0.35-0.06-0.19-0.03-0.18
					c0.6,1.91,0.98,3.52,1.16,5.47c-0.03-0.16-0.03,0.04-0.05,0.1c0.06,0.57,0.06,1.23,0.1,1.71c-0.02-0.37-0.01-0.96-0.03-1.17
					c0.17,1.58,0.08,3.16-0.17,4.94c-0.03,0.22-0.03,0.35-0.07,0.63c-0.35,1.9-0.93,3.78-1.48,5.28c-0.02-0.02-0.06,0.05-0.14,0.24
					c-0.04,0.16-0.17,0.47-0.25,0.68c0.32-0.43,0.16,0.22,0.44-0.1c-0.03,0.12,0,0.16-0.14,0.44c0.11-0.13,0.04,0.1,0.08,0.14
					c-0.22,0.58-0.39,1.04-0.76,1.79c-0.31,0.61-0.96,1.56-1.07,1.86c0.35-0.42,0.98-1.59,1.17-1.7c-0.26,0.66,0.6-0.03-0.59,1.75
					c0.31-0.43-0.11,0.24,0.15-0.12c-0.27,0.4-0.36,0.47-0.48,0.59c-0.2,0.33,0.14-0.13-0.07,0.18c0.05,0.02,0.07-0.12,0.22-0.32
					c0,0.03-0.07,0.14-0.08,0.18c0.45-0.65,0.94-1.43,1.25-1.92c0.03-0.14-0.2,0.26-0.21,0.2c0.12-0.18,0.19-0.31,0.23-0.41
					c0.16-0.12,0.19,0.02,0.13,0.3c-0.4,0.63-0.46,0.91-0.39,0.89C164.38,67.84,164.85,67.13,164.8,67.42z M164.62,66.77
					c-0.02,0.01,0.01-0.04,0.04-0.09c0.13-0.25-0.07,0.07-0.04-0.02c0.13-0.24,0.12-0.13,0.16-0.13
					C164.72,66.61,164.71,66.6,164.62,66.77z M170.62,41.8c-0.05-0.01-0.2-0.36-0.3-0.63C170.34,41.12,170.51,41.55,170.62,41.8z
					 M170.66,41.65c-0.06-0.09-0.46-0.88-0.39-0.84c0.2,0.42,0.18,0.3,0.36,0.72C170.61,41.53,170.62,41.57,170.66,41.65z
					 M170.53,40.43c0.03,0.15-0.18-0.34-0.15-0.19c-0.1-0.24-0.34-0.69-0.35-0.74C170.1,39.53,170.45,40.23,170.53,40.43z
					 M162.99,33.44c-0.09-0.05-0.59-0.54-0.46-0.47C162.83,33.25,162.74,33.21,162.99,33.44z M162.01,32.56
					c0.05,0.01-0.11-0.12-0.24-0.23c-0.04,0,0.32,0.28,0.22,0.25c-0.25-0.23-0.18-0.11-0.43-0.34c0.13,0.02-0.57-0.54-0.61-0.64
					c0.26,0.18,0.55,0.52,0.77,0.62c0.09,0.14,0.41,0.35,0.64,0.61C162.36,32.88,162.18,32.69,162.01,32.56z M160.85,31.54
					c-0.59-0.46-1.08-0.8-1.38-1.09C160.16,30.93,160.93,31.46,160.85,31.54z M158.18,29.6c-0.3-0.14-0.8-0.43-1.24-0.7
					c-0.56-0.27-1.39-0.74-2.05-1.05C156.02,28.32,157.05,28.88,158.18,29.6z M153.78,27.36c-0.1-0.05-0.07-0.05-0.09-0.07
					c-0.85-0.33-2.39-0.93-3.76-1.26c1.05,0.13,2.39,0.68,3.76,1.24C153.68,27.29,153.81,27.35,153.78,27.36z M137.25,23.46
					c-0.86,0.15-1.23,0.19-1.74,0.32c0.27-0.13,0.95-0.18,1.26-0.29C137.11,23.44,137.28,23.42,137.25,23.46z M134.59,23.99
					c-0.24,0.08-0.19,0.1-0.56,0.21c-0.01-0.02-0.31,0.07-0.24,0.02C133.95,24.16,134.44,24.02,134.59,23.99z M120.9,35.5
					c-0.28,0.33-0.16,0.08-0.46,0.46c0.09-0.12,0.33-0.42,0.41-0.5C120.91,35.4,121.05,35.31,120.9,35.5z M117.69,35.65
					c-0.25,0.47-1.03,1.43-1.62,2.43C116.45,37.34,117.01,36.57,117.69,35.65z M120.28,41.69c0.03-0.01-0.03,0.09-0.02,0.1
					c-0.58,0.97-1.01,2.04-1.42,2.95c0.12-0.43,0.58-1.41,0.67-1.71C119.7,42.77,119.99,42.14,120.28,41.69z M113.33,50.55
					c-0.01,0.44-0.11,1.04-0.15,1.55C113.13,51.73,113.23,50.97,113.33,50.55z M111.58,57.12l0.04,0c0.02,0.84,0.38,2.64,0.32,2.79
					C111.83,59.2,111.65,58.08,111.58,57.12z M112.15,60.94c0.02-0.02,0.07,0.17,0.11,0.22c0.08,0.43,0.15,0.64,0.23,1.03
					C112.38,62.05,112.29,61.49,112.15,60.94z M124.17,79.75c0.26,0.11,1.37,0.97,1.69,1.08c0.27,0.22,0.82,0.54,1.3,0.81
					C126.26,81.19,124.67,80.2,124.17,79.75z M127.26,81.71c0.27,0.09,0.72,0.36,1.15,0.59C128.11,82.21,127.78,81.97,127.26,81.71z
					 M157.75,73.09c0.05-0.06,0.21-0.19,0.33-0.31C158.08,72.84,157.91,73,157.75,73.09z"/>
			</g>
		</g>
		<g>
			<g>
				
					<linearGradient id="SVGID_00000140012307158135840620000005308766172584633783_" gradientUnits="userSpaceOnUse" x1="834.6708" y1="355.885" x2="931.6863" y2="355.885" gradientTransform="matrix(0.3999 -0.9166 0.9166 0.3999 -537.0273 721.588)">
					<stop  offset="0" style="stop-color:#F99D1C"/>
					<stop  offset="0.0212" style="stop-color:#F99F1C"/>
					<stop  offset="0.2846" style="stop-color:#F7B419"/>
					<stop  offset="0.5406" style="stop-color:#F7C314"/>
					<stop  offset="0.7837" style="stop-color:#F7CC10"/>
					<stop  offset="1" style="stop-color:#F7CF0E"/>
				</linearGradient>
				<path style="fill-rule:evenodd;clip-rule:evenodd;fill:url(#SVGID_00000140012307158135840620000005308766172584633783_);" d="
					M181.11,49.45c-0.37-3.99-2.15-9.98-4.77-14.34c-0.49-0.83-1.22-1.97-1.59-2.6c0.81,0.57,2.36,3.98,2.89,4.54
					c-0.1-0.26-0.46-0.88-0.41-0.94c1.94,3.53,2.99,6.89,3.77,10.7c0.55,2.51,0.67,5.6,0.93,6.37c0.04-0.08,0.01-0.65,0.02-0.88
					c0.08,0.12,0.11,0.13,0.17-0.16c0.26-2.15-0.64-7.92-2.23-11.74c-1.18-3.52-3.9-8.15-6.34-11.06c-1.45-1.68-3.25-3.77-5.04-5.07
					c-1.73-1.57-2.98-2.45-5.15-3.83c0.04,0,0.76,0.38,0.65,0.39c0.45,0.25,1.07,0.61,1.89,1.2c0.6,0.38,1.07,0.55,2.11,1.43
					c0.23,0.06,0.45,0.16,0.4-0.02c0.83,0.63,1.59,1.33,2.21,1.84c3.84,3.67,7.95,9.38,10.18,15.89c0.02-0.04,0.1,0.15,0.11,0.12
					c-0.11-0.47-0.24-0.75-0.39-1.3c0.16,0.28,0.02-0.03-0.01-0.16c0.02-0.15,0.18,0.25,0.23,0.23c-0.07-0.48-0.4-1.54,0.01-0.99
					c0.52,1.3,0.91,1.38,1.49,3.07c0.02-0.17-0.06-0.56-0.07-0.79c0.49,1.01,1.08,2.08,0.86,0.71c0.12,0.21,0.3,0.81,0.37,0.88
					c-0.36-1.41-0.23-1.8-1.03-3.84c0.01-0.11-0.2-0.64-0.14-0.64c0.66,1.42,1.26,3.08,1.67,4c-0.97-4.01-3.23-8.68-5.69-12.2
					c-0.67-1.02-1.42-2.16-2.31-3.1c-1.59-2.24-4.77-4.97-6.21-6.33c-0.44-1.1-7.6-5.74-11.68-7c-2.04-0.84-4.94-1.5-5.78-1.78
					c4.63,0.84,11.03,3.57,15.61,6.89c0.27,0.17-0.21-0.26,0.33,0.11c2.03,1.43,3.56,2.84,5.04,4.18c0.46,0.58,1.15,1.19,2.03,2.14
					c3.06,3.31,7.13,9.73,8.85,15.49c0.11,0.26,0.09-0.03,0.24,0.43c0.49,1.42,0.58,2.2,0.9,2.98c-0.18-0.81-0.25-1.3-0.37-1.94
					c-1.42-4.36-1.81-5.52-3.68-8.94c-0.15-0.46-1.07-1.96-1.58-2.7c-1.87-3.13-5.08-6.85-8.15-9.44c-0.27-0.22-0.41-0.26-0.8-0.58
					c-4.99-3.84-7.85-5.47-13.27-7.5c-0.03-0.05-0.53-0.22-0.44-0.24c0.32,0.12,0.72,0.21,0.33,0.06c-0.05,0-0.27-0.05-0.32-0.1
					c-0.12-0.1,0.52,0.16,0.49,0.1c-0.53-0.24-1.05-0.43-1.39-0.53c0.16,0.05,0.19,0.09-0.01,0.03c-1.09-0.38-2.05-0.58-4.34-1.05
					c-0.07-0.05,0.24-0.06-0.32-0.14c0.28,0.11-0.17,0.04-0.67-0.04c-0.82-0.16,0.11-0.09-0.8-0.23c-1.16,0.01-2.44-0.3-4.96-0.36
					c-0.87-0.07-0.7-0.17,0.01-0.18c0.51,0.08,0.87,0.05,1.32,0.14c0.38-0.02,1.71,0.04,2.64,0.23c0.29,0.01,0.63,0.03,1.16,0.1
					c1.32,0.22,3.97,0.76,5.68,1.27c0.62,0.14,1.73,0.46,1.32,0.24c-0.37-0.2-0.92-0.21-1.12-0.32c0.02-0.02-0.02-0.06-0.14-0.11
					c1.6,0.34,3.48,1.2,4.9,1.7c0.23,0.11,0.15,0.14,0.58,0.34c5.39,2.61,8.25,4.65,12.26,8.31c0.07,0.02,0.09-0.01,0.41,0.3
					c0.02,0.06-0.21-0.14-0.04,0.04c0.44,0.26-1.59-1.65-1.91-1.89c-0.2-0.18-0.1-0.03-0.28-0.18c-1.08-1.37-5.64-4.47-9.12-6.22
					c-0.52-0.2-2.36-1-2.93-1.26c1.06,0.28,2.21,0.81,3.32,1.24c0.99,0.53,2.44,1.26,3.29,1.73c0.42,0.26,1.81,1.27,2.26,1.48
					c0.46,0.44,1.37,1.02,1.55,1.3c0.57,0.46,0.63,0.46,0.96,0.7c0.14,0.18,0.55,0.5,1.13,1c-0.31-0.35-0.1-0.32-0.51-0.71
					c-0.96-0.77-1.55-1.33-2.5-2.03c-1.53-1.13-3.25-2.11-5.18-3.23c1.27,0.27,5.96,3.5,7.24,4.72c1.28,0.96,1.9,1.69,2.73,2.3
					c-2-2.48-8.42-6.55-10.25-7.58c0.95,0.35,2.55,1.28,3.21,1.64c-0.04-0.17-2.02-1.22-2.48-1.55c1.47,0.79,2.65,1.51,3.99,2.38
					c-0.13-0.23-1.9-1.29-1.89-1.2c-0.1-0.14-0.71-0.47-1.3-0.86c0.21,0.02,1.3,0.68,1.82,1c2.13,1.31,4.63,3.29,6.13,4.74
					c0.11,0.01,0.84,0.56,0.64,0.32c-0.03,0-0.06-0.01-0.28-0.2c0.34,0.13-0.47-0.86-1.84-1.86c0.1,0.09,0.27,0.22,0.26,0.23
					c-1.73-1.47-2.77-2.13-4.59-3.42c0.03-0.04,0.69,0.43,0.9,0.53c0.16,0.01-0.14-0.21-0.05-0.23c3.06,1.98,5.57,4.32,7.47,6.01
					c1.08,1.1,2.55,2.84,3.39,3.77c-0.3-0.35-0.4-0.49-0.3-0.43c-1.61-1.89-1.99-2.23-3.17-3.5c-0.13-0.19,0.15,0.01,0.12-0.13
					c2.08,2.01,3.78,3.92,5.12,5.58c-0.47-0.65,0.19,0.09-0.64-1.06c0.04-0.02,0.21,0.16,0.52,0.49c-0.26-0.33-0.42-0.52-0.77-0.97
					c-0.16-0.3,0.17,0.07,0-0.24c-0.03,0.11-0.48-0.62-0.18-0.31c-0.35-0.41-0.82-0.86-0.96-1.06c-0.32-0.45,0.02-0.44,0.73,0.32
					c1.08,1.23,1.64,2.13,2.12,2.67c-0.16-0.35-0.82-1.09-1.05-1.45c0.12,0.16,0.18,0.21,0.24,0.26c-0.44-0.59-1.46-1.75-1.79-2.25
					c-0.08-0.04-0.53-0.57-0.64-0.63c-0.44-0.55-1.1-1.31-1.37-1.68c0.57,0.29,2.16,1.94,3.47,3.67c-0.07-0.24,0.5,0.52,0.56,0.49
					c-0.32-0.39-0.24-0.47-0.53-0.74c-2.14-2.75-5.92-6.64-10.27-9.69c0.12,0.15-0.98-0.63-1.19-0.83
					c-1.22-0.72-2.78-1.68-3.61-2.12c-0.91-0.54-2.92-1.47-3.78-1.81c-7.47-3.17-15.72-4.5-23.92-3.67
					c-2.23,0.3-4.84,0.69-7.19,1.28c-0.36,0.09-0.52,0.17-0.88,0.27c-0.85,0.22-1.83,0.53-2.8,0.84c-1.11,0.42-1.98,0.68-2.92,1.1
					c-0.18,0.07-1.93,0.84-1.52,0.66c-1.16,0.57-2.25,1.12-3.23,1.7c-0.49,0.23-1.18,0.6-1.77,0.96c-0.05,0.06,0.25-0.11,0.03,0.04
					c-1.79,1.09-2.52,1.66-4.11,2.75c-0.64,0.54-1.61,1.37-2.52,2.13c-1.93,1.66-4.11,3.85-5.59,5.77c-0.55,0.61-0.71,0.8-1.11,1.23
					c-0.45,0.71-1.69,2.39-2.29,3.32c-2.15,3.42-3.87,7.1-5.11,10.74c-2.04,5.9-2.83,12.76-2.39,18.78
					c0.63,10.02,4.52,19.39,10.08,26.49c0.25,0.34,0.16,0.13,0.38,0.41c0.11,0.23,0.56,0.76,0.88,1.17
					c3.67,4.32,8.33,8.23,13.67,11.17c2.19,1.2,4.15,2.16,5.81,2.66c0.46,0.21-0.32-0.06,0.14,0.15c0.4,0.11,2.6,0.97,2.96,0.95
					c0.35,0.12,0.26,0.15,0.86,0.33c2.07,0.56,3.84,1.15,6.79,1.53c0.21-0.02-0.08-0.14,0.74-0.04c4.39,0.49,7.25,0.46,10.91,0.06
					c4.34-0.31,9.11-1.54,13.39-3.31c4.62-1.91,9.05-4.55,12.87-7.78c0.26-0.24,0.46-0.44,0.8-0.74c1.15-0.93,1.9-1.72,2.75-2.63
					c2.08-2.13,4.19-4.74,5.33-6.64c-1.33,1.85-2.44,3.45-4.06,5.09c-1.85,2.06-4.02,4.09-6.51,6c-1.14,0.9-2.39,1.82-3.53,2.53
					c-6.95,4.64-16.91,7.54-24.13,7.47c-0.13-0.09,0.14-0.14,0.35-0.21c-0.85-0.07-2.24,0.01-3.06-0.09
					c-2.1,0.01-4.37-0.23-6.64-0.6c-0.61-0.1-1.49-0.22-1.76-0.36c1.19,0.23,1.75,0.31,2.67,0.43c-0.76-0.19-2.37-0.4-3.2-0.51
					c-1.23-0.29-2.05-0.45-2.98-0.69c-0.28-0.18-1.94-0.6-2.21-0.81c-1.27-0.38-3.46-1.23-3.48-1.45c1.82,0.73,5.2,1.99,7.67,2.5
					c0.78,0.19,1.6,0.26,2.28,0.49c1.11,0.16,4.42,0.7,6.23,0.65c0.42,0.02,0.33,0.07,0.89,0.09c8.26,0.22,17.04-1.7,24.57-5.95
					c5.87-3.2,11.53-8.29,14.88-13.11c1.09-1.31,2.3-3.3,3.41-5.22c0.2-0.41,0.27-0.67,0.6-1.29c0.36-0.73,0.38-0.59,0.68-1.25
					c0.11-0.31,0.24-0.66,0.1-0.55c-0.41,0.81-1.11,2.05-1.28,2.13c-0.91,1.69-1.75,2.88-2.58,4.22c-0.76,0.92-2.26,3.13-3.3,4.13
					c0.43-0.86-2.31,2.53-3.16,3.06c2.74-2.61,5.87-6.66,7.29-9.17c-0.59,0.83-1,1.38-1.75,2.41c-0.32,0.56-0.78,1.13-0.83,1.34
					c-0.16,0.16-0.54,0.63-0.66,0.82c-0.13,0.13-0.15,0.09-0.38,0.37c-1.16,1.42-3.33,3.76-4.72,4.91c0.24-0.31,1.53-1.42,1.72-1.74
					c-0.57,0.56-1.54,1.47-2.13,2.05c-0.12,0.19,0.43-0.38,0.3-0.19c-1.4,1.33-2.89,2.56-4.49,3.61c-0.11,0,0.78-0.55,0.83-0.64
					c-8.44,6.33-19.79,9.81-30.62,9.06c-4.83-0.28-10-1.61-13.68-3c-1.65-0.73-3.28-1.36-4.63-2.14c-1.8-0.74-4.66-2.59-7.39-4.72
					c-0.32-0.27-0.22-0.25-0.66-0.59c-2.36-1.89-5.01-4.66-6.3-6.33c0.26,0.28,0.38,0.34-0.06-0.18c-0.47-0.52,0.21,0.4-0.08,0.06
					c-0.67-0.84-1.85-2.27-2.28-3.12c0.07-0.07,0.85,1.12,1.28,1.67c0.2-0.19-2.03-2.98-3.33-5.33c-1.31-2.29-2.56-5.04-3.14-6.81
					c-0.41-1.12-0.84-2.27-1.17-3.48c-0.14-0.53-0.24-1.04-0.36-1.53c-0.45-2.03-0.9-3.97-0.94-5.5c0.55,3.9,1.33,7.62,2.91,11.27
					c-0.06-0.17-0.05-0.22,0.03-0.01c0.66,1.44,0.86,2.31,1.44,3.55c1.46,2.89,3.71,6.49,5.94,9.2c-0.17-0.09-0.91-1.1-1.03-1.18
					c0.57,1,2.16,2.74,3.87,4.49c0.24,0.25-0.14,0,0.32,0.43c0.32,0.29,0.22,0.07,0.81,0.67c-0.17-0.04,0.15,0.27,0.57,0.67
					c0.79,0.5,3.72,3.02,6.21,4.53c0.19,0.15,0.05,0.12,0.24,0.27c1.33,0.74,2.28,1.39,3.83,2.12c0.41,0.17,0.26-0.01,0.85,0.26
					c0.67,0.44,1.79,0.95,2.71,1.21c0.82,0.38,1.9,0.72,2.78,1.06c0.34,0.09,0.29,0.01,0.86,0.19c3.69,1.16,7.91,1.85,11.3,2
					c1.17-0.08,3.77-0.01,5.57-0.21c-1.07-0.01-4.22,0.16-4.68-0.04c0.08-0.04,0.74,0,0.86-0.05c-0.82-0.05-1.21-0.09-2.07-0.13
					c-2.61-0.22-7.07-0.81-9.35-1.61c-0.61-0.13-1.91-0.52-2.65-0.76c-0.44-0.17-0.61-0.28-1.11-0.46
					c-3.32-1.22-3.79-1.74-3.06-1.61c1.04,0.51,0.84,0.27,1.61,0.59c-0.06,0.02,0.01,0.07,0.29,0.19c0.32,0.1,0.46,0.1,0.67,0.15
					c3.08,1.1,4.77,1.55,8.22,2.27c0.17-0.02,0.74,0.06,1.03,0.04c-3.11-0.51-5.15-1.06-7.91-2c-1.05-0.49-3.7-1.53-4.94-2.26
					c0.55,0.25,1.07,0.47,1.12,0.42c0.89,0.65,3.77,1.66,5.16,2.1c0.46,0.08-0.04-0.15,0.07-0.2c0.23,0.06,0.28,0.06,0.49,0.11
					c1.58,0.52,1.83,0.53,3.58,0.97c-0.34-0.11-1.02-0.38-1.76-0.57c-2.87-0.74-7.11-2.38-8.94-3.37c-1.54-0.87-3.86-2.22-5.69-3.55
					c-0.9-0.72-1-0.91-1.87-1.68c-1.56-1.32-4.07-3.45-5.54-5.29c-0.31-0.23-0.95-1.11-1.35-1.47c-0.17-0.24-0.29-0.43-0.36-0.57
					c0.35,0.35,1.32,1.34,1.71,1.83c-0.04-0.18-1.39-1.6-1.43-1.84c0.01-0.05,0.2,0.17,0.35,0.35c2.28,2.82,6.22,6.73,10.01,9.11
					c0.19,0.05,0.97,0.64,1.4,0.89c0.32,0.11,1.06,0.54,1.63,0.82c0.35,0.25,1.3,0.76,1.9,1.01c-0.41-0.21-0.81-0.48-0.26-0.22
					c-0.69-0.38-1.29-0.72-1.86-1.07c-0.3-0.17-0.16-0.02-0.46-0.19c-0.18-0.13-0.26-0.21-0.39-0.31c-0.61-0.37-0.57-0.22-1.17-0.62
					c-0.63-0.5-1.56-1.03-2.41-1.74c-0.11-0.03-0.44-0.25-0.71-0.42c-0.87-0.76-2.09-1.84-3.04-2.54c-2.38-2.29-4.76-4.93-6.63-7.77
					c1.21,1.68,3.25,4.36,4.21,5.06c-2.61-2.78-5.15-6.64-6.65-9.36c-0.11-0.33-0.58-1.23-0.66-1.51c0.17,0.32,0.1,0.02,0.18,0.09
					c-0.37-0.76-0.25-0.82-0.48-1.4c0.54,0.93,1.53,3.11,2.71,5.02c0.08,0.01,0.08-0.08,0.04-0.22c0.42,0.69,0.53,0.75,0.9,1.35
					c0.39,0.73,1.01,1.53,1.57,2.26c-0.05-0.18,1.25,1.52,1.67,1.98c-1.5-1.91-3.92-4.93-5.52-8.36c-1.08-1.71-2.36-5.36-3.1-7.65
					c-0.08-0.52-0.27-1.26-0.42-1.91c0.16,0.23-0.15-1.17,0.09-0.35c-0.65-3.33-0.89-4.35-1.03-7.5c0.17,0.7-0.15-2.4,0.02-3.05
					c0.05,0.55,0.15,1.37,0.09,2.41c0.07,0.29,0.14,0.84,0.21,1.11c0.03,0.52-0.09,0.12-0.03,0.81c0.15,1.8,0.43,2.32,0.6,3.96
					c0.05,0.09,0.11,0.3,0.17,0.62c0.54,2.89,1.09,4.55,1.79,6.46c0.19,0.47,0.08,0.36,0.31,0.91c0.41,0.96,0.61,1.5,1.1,2.49
					c0.07,0.03,0.12,0.04,0.31,0.38c0.45,1.35,1.83,3.55,2.8,5.19c2.18,3.08,4.86,6.35,8.43,9.32c0.4,0.31,0.48,0.31,0.91,0.65
					c0.38,0.41,0.93,0.67,1.4,1.05c0.47,0.37,1.15,1.06,2.75,1.92c-0.33-0.26-0.93-0.68-1.13-0.9c-0.42-0.28-0.25-0.08-0.7-0.38
					c-1.11-0.82-2.88-2.11-3.69-3.03c0.07,0.02,0.36,0.28,0.29,0.15c-0.83-0.76-1.33-1.03-1.76-1.59c0.08,0.04,0.2,0.14,0.37,0.28
					c2.42,2.24,4.11,3.37,6.84,5.1c0.38,0.22,0.21,0.03,0.71,0.35c0.28,0.17,0.37,0.29,0.8,0.51c4.23,2.36,10.14,4.32,14.8,4.67
					c-0.88-0.12-1.89-0.29-2.95-0.51c-0.62-0.1-1.37-0.25-2-0.41c-3.6-0.89-7.81-2.61-10.88-4.51c0.3,0.04,2.89,1.53,4.1,2
					c0.88,0.31,1.85,0.76,2.91,1.16c2.75,0.98,7.82,2.17,10.87,2.21c0.3,0.03,0.39,0.08,0.78,0.09c1.14-0.04,3.64,0.13,5.47-0.13
					c1.23-0.04,2.48-0.18,3.56-0.43c1.46-0.09,3.24-0.55,4.87-1.1c0.41-0.1,0.4-0.03,0.91-0.2c0.57-0.31,2.37-0.75,2.76-1.09
					c-0.9,0.28-1.75,0.59-2.64,0.93c-0.17,0.02-0.69,0.2-0.91,0.22c-7.51,2.17-13.84,2.27-22.01,0.41
					c-0.13-0.06-0.42-0.14-0.28-0.17c-2.24-0.59-5.05-1.74-7.43-2.77c-1.01-0.59-2.8-1.43-3.39-1.93
					c-3.95-2.19-8.35-6.25-11.17-9.84c-6.37-8.13-9.9-19.48-8.38-30.55c0.03-0.33,0.01-0.46,0.08-0.93
					c0.49-3.56,1.78-7.59,3.1-10.63c0.22-0.43,0.28-0.41,0.54-0.96c0.06-0.18,0.19-0.5,0.37-0.86c0.23-0.31,0.47-0.66,0.48-0.45
					c1.52-3.15,4.89-7.7,7.4-10.1c0.76-0.8,2.59-2.39,3.98-3.45c1.9-1.48,3-1.97,2.22-1.15c-0.43,0.29-0.62,0.35-1.16,0.75
					c-0.2,0.17,0.06,0.06-0.19,0.25c-0.23,0.17-0.12,0.02-0.39,0.24c-0.41,0.41-1.19,1.04-2,1.69c-0.33,0.31-0.42,0.5-0.58,0.72
					c0.91-0.81,2.18-1.87,3.09-2.49c0.06-0.1,0.24-0.3,0.56-0.53c1.99-1.24,5.4-3.36,8.33-4.47c0.44-0.19,0.93-0.37,1.27-0.52
					c1.43-0.45,5.85-1.85,7.69-1.86c0.05-0.03,0.19-0.06,0.44-0.1c0.12,0.03,0.46-0.01,0.33,0.09c0.71-0.1,0.99-0.09,1.21-0.07
					c0.02,0.1-0.2,0.15,0.17,0.17c3.38-0.37,5.99-0.31,9.04-0.02c0.7,0.18,1.69,0.22,2.37,0.48c1.05,0.12,2.04,0.39,3.09,0.67
					c2.11,0.58,4.06,1.21,5.99,2.03c2.63,1.16,4.84,2.45,7.1,3.99c0.19,0.18,0.47,0.4,0.43,0.44c-2-1.3-4.22-2.65-7.5-4.12
					c-0.24-0.1-0.3-0.08-0.58-0.19c-1.02-0.47-2.17-0.9-3.5-1.29c-1.09-0.42-2.52-0.76-3.89-1.07c-2.49-0.55-5.22-0.93-7.43-0.82
					c-0.82-0.05-2.34-0.04-3-0.04c-4.35,0.44-7.52,0.78-11.84,2.46c-1.08,0.28-2.84,1.14-4.53,1.99c-0.39,0.13-2,1.02-2.48,1.41
					c-0.43,0.25-0.59,0.28-1.06,0.57c-1.18,0.86-2.34,1.61-3.51,2.58c-0.95,0.77-2.2,1.99-3.16,3c-2.3,2.25-4.63,5.43-5.55,7.27
					c-1.76,2.66-3.27,6.26-4.22,9.77c-0.79,2.81-1.38,6.05-1.3,8.44c-0.02,0.17-0.04-0.04-0.07,0.45c0.09-0.08,0.01,2.76,0.04,3.45
					c0.11,0.94,0.3,3.57,0.57,5.07c-0.02-0.01-0.06-0.19-0.08-0.14c0.07,0.35,0.15,1.08,0.22,1.18c0-0.11-0.07-0.47-0.02-0.45
					c0.1,0.63,0.16,0.74,0.2,1.18c0.06,0.09,0.15,0.39,0.25,0.87c0.15,0.6,0.07,0.56,0.17,1.04c0.27,1.07,0.48,1.42,0.71,1.98
					c0.46,1.48,1.22,3.39,2.14,5.26c0.15,0.37,0.14,0.48,0.38,0.99c0.09-0.02,0.42,0.53,0.76,1.12c-0.03,0.06,0.13,0.38,0.21,0.57
					c1.21,2.01,3.38,5.13,5.97,7.67c0.26,0.2,0.5,0.39,0.63,0.43c0.86,0.89,1.92,1.7,2.91,2.57c-0.12-0.03,0.08,0.14,0.05,0.17
					c1.21,0.92,1.69,1.31,2.8,2.01c0.04-0.03-0.3-0.34,0.19-0.03c0.19,0.24,0.81,0.52,1.36,0.91c1.3,0.64,1.99,1.03,3.72,1.9
					c0.09,0.01,0.1-0.03,0.3,0.05c0.18,0.12,0.74,0.32,0.94,0.45c0.15,0.01,0.2-0.04,0.6,0.1c0.39,0.19,1.62,0.67,1.81,0.67
					c-0.9-0.35-1.14-0.55-1.44-0.78c2.27,0.76,4.71,1.71,6.92,1.99c0.7-0.02,0.87-0.05,2.23,0.05c0.97,0.1,2.11,0.16,2.33,0.1
					c0.11-0.04-0.63-0.18-0.85-0.29c-0.07-0.03,0.18-0.02,0.15-0.05c-0.05-0.08-0.68-0.21-0.7-0.26c-0.17-0.39,4.84-0.02,7.72-0.27
					c1.34-0.18,2.84-0.34,3.79-0.63c3.87-0.75,6.76-1.89,10.58-3.92c0.29-0.17,0.2-0.18,0.6-0.39c1.53-0.79,2.27-1.45,3.4-2.27
					c0.62-0.46,1.13-0.84,1.57-1.2c0.23-0.19,0.33-0.36,0.6-0.6c1.21-1.08,2.71-2.47,3.99-3.95c1.36-1.59,2.35-3.15,3.5-4.89
					c0.2-0.32,0.12-0.33,0.38-0.75c0.81-1.23,1.72-3.2,2.16-4.37c1.22-2.85,2.19-6.6,2.6-10.32c0.01-0.54,0.02-1.09,0.07-1.8
					c-0.1,0.78-0.16,1.65-0.21,2.34c-0.28,1.81-0.52,3.9-1.14,5.4c0.04-0.2-0.09,0-0.15,0.1c-0.31,1.53-1.09,3.4-1.69,4.96
					c-0.2,0.46-0.26,0.47-0.44,0.86c-1.37,3.14-3.96,7.07-6.45,9.49c-0.35,0.35-0.2,0.28-0.55,0.64c0.11-0.15,0.09-0.18-0.14,0.05
					c-0.26,0.47-2.08,2.11-2.65,2.47c-0.47,0.46-1.86,1.48-2.46,1.84c-0.5,0.46-1.06,0.88-2.31,1.58c-1.27,0.92-3.9,2.05-4.83,2.19
					c-0.55,0.21-0.61,0.3-1.15,0.51c-1.76,0.47-3.39,1.14-4.83,1.41c0,0.08,0.72-0.08,0.85-0.05c-0.44,0.11-1.04,0.33-1.5,0.39
					c0.28-0.13,0.18-0.15-0.04-0.2c-0.9,0.16-1.32,0.28-2.21,0.39c-0.23,0.08,0.23,0.08-0.12,0.16c-0.88,0.1,0.02-0.11-0.43-0.1
					c-0.75,0.18-4.09,0.22-4.07,0.36c0,0.02,0.67,0.03,0.42,0.06c-0.59,0.04-0.63-0.01-0.71,0.06c-0.41-0.04-0.04-0.11-0.57-0.17
					c-1.33,0.07-2.22-0.2-3.36-0.22c-0.21-0.05-0.1-0.08-0.54-0.15c-0.43-0.07-0.51-0.06-0.84-0.1c-0.07,0.03-0.09,0.09-0.58,0.05
					c-0.98-0.16-1.53-0.32-1.49-0.41c-1.58-0.28-3.27-0.79-4.17-1.22c0.19,0.03,0.25-0.01,0.44,0c0.29,0.12,0.76,0.22,1.07,0.3
					c0.04,0.13,1.37,0.48,1.88,0.54c1.88,0.43,3.14,0.7,4.54,0.71c1.13,0.15,1.74,0.14,2.5,0.22c0.05-0.05,0.08-0.1,0.42-0.1
					c2.7,0.03,5.02-0.22,7.75-0.71c0.84-0.23,2.27-0.6,3.49-0.92c0.55-0.25,0.79-0.26,1.83-0.62c2.12-0.82,5.19-2.31,6.53-3.28
					c3.25-1.96,6-4.32,8.81-7.6c0.18-0.21,0.15-0.23,0.32-0.44c0.71-0.7,1.61-2.2,2.43-3.31c0.12-0.21,0.28-0.48,0.32-0.6
					c0.9-1.45,1.83-3.15,2.29-4.49c0.82-1.53,1-2.72,1.53-4.07c0.05-0.51,0.33-1.48,0.54-2.52c-0.02,0.15-0.06,0.38,0.01,0.28
					c0.54-2.41,0.86-4.9,0.81-6.57c-0.11,1.05-0.06,1.77-0.24,2.69c0.01,0.34-0.14,1.98-0.31,2c0.22-0.95,0.13-1.02,0.12-1.35
					c0.2-1.06,0.15-2.01,0.18-2.95c0.1-1.09,0.09-3.01-0.02-3.75c0.06,2.08,0.07,5.1-0.46,6.8c0.02,0.2,0,0.53-0.1,1.07
					c-0.05,0.17-0.08,0.24-0.12,0.25c-0.08,0.38-0.06,0.46-0.08,0.66c-0.51,1.59-0.83,3.66-1.87,5.99c-0.1,0.09-0.3,0.46-0.25,0.18
					c0.67-1.25,1.23-3.41,1.6-4.92c-0.05,0.01-0.07-0.05-0.03-0.29c0.05-0.18,0.07-0.14,0.11-0.24c0.12-0.57,0.16-0.91,0.24-1.3
					c0.32-1.58,0.52-2.87,0.53-4.07c0.02-0.52-0.07-0.52-0.07-1.07c0.04-0.65,0.24-2.14,0.07-2.52c-0.07,0.22,0,1.31-0.09,1.46
					c-0.05-0.33,0.01-1.31-0.11-1.32c0.18,2.7-0.29,6.81-0.87,9.42c-1.54,5.85-3.74,10.15-7.27,14.48
					c-0.21,0.23-0.21,0.15-0.48,0.47c-0.75,1.14-1.97,1.99-3.46,3.34c-0.11,0.02-0.34,0.17-0.68,0.44
					c-0.53,0.46-1.05,0.83-1.43,1.19c0.01-0.03,0.15-0.14-0.13,0.05c-1.5,1.12-3.05,2.02-4.26,2.74c0.02,0.04,0.54-0.18,0.05,0.09
					c-1.15,0.38-2.84,1.38-5.06,2.1c-0.29,0.11-0.32,0.16-0.62,0.27c-3.14,1.08-8.06,1.83-11.52,1.83
					c-1.23-0.08-3.24-0.18-4.18-0.26c-0.28-0.06-0.43-0.12-0.79-0.18c-3.11-0.37-6.28-1.44-8.59-2.33c-0.35-0.16-0.5-0.27-0.85-0.43
					c-2.39-0.97-5.81-3.15-8.19-5.07c-2.46-2.15-5.67-5.43-7.58-8.73c-0.62-1.04-0.96-1.66-1.33-2.23
					c-0.11-0.24-0.12-0.32-0.27-0.63c-0.11-0.17-0.21-0.32-0.3-0.46c-0.05-0.15,0.01-0.13-0.17-0.53c-0.64-1.33-1.15-2.82-1.47-3.54
					c-0.12-0.4-0.1-0.48-0.3-1.05c-0.87-2.25-1.35-6.1-1.6-8.76c-0.03-0.4,0.02-0.42,0.01-0.83c-0.08-0.38-0.03-1.14-0.07-1.65
					c0.12-1.03,0.15-2.6,0.3-3.84c0.39-3.37,1.44-7.07,2.82-10.32c0.68-1.45,1.75-3.52,2.2-4.3c0.15-0.23,0.18-0.15,0.43-0.54
					c2.4-3.79,5-6.48,8.43-9.24c0.03-0.09,0.21-0.27,0.49-0.5c0.63-0.48,2.28-1.5,2.51-1.74c-0.7,0.44-0.65,0.39-1.03,0.69
					c-0.04,0-0.2,0.11-0.26,0.12c0.16-0.28,1.44-0.91,1.83-1.25c0.85-0.42,2.83-1.6,3.72-1.85c-0.3,0.18-0.83,0.37-0.98,0.51
					c0.98-0.46,1.16-0.56,2.01-0.95c0.25-0.07,0.65-0.17,0.69-0.11c1.5-0.66,3.01-1.09,4.55-1.64c0.5-0.1,1.23-0.26,1.37-0.23
					c0.3-0.03-0.05,0.06,0.02,0.1c0.74-0.11,2.37-0.36,2.87-0.42c0.37,0.18-0.72,0.43-1.01,0.69c0.55-0.07,1.16-0.15,1.62-0.23
					c0.33,0.07-0.25,0.19,0.29,0.21c1.03-0.11,2.48-0.01,4.05-0.12c0.38,0.07,2.79,0.15,2.83,0.13c1.2,0.16,2.23,0.29,3.59,0.57
					c0.39,0.06,0.27-0.03,0.81,0.07c2.77,0.65,4.72,1.29,7.36,2.55c0.15,0.14-0.54-0.25-0.4-0.11c0.38,0.18,0.68,0.31,0.87,0.37
					c-0.09-0.05-0.24-0.11-0.24-0.13c1.43,0.62,2.72,1.29,3.99,2.22c-0.08-0.02-0.35-0.2-0.48-0.24c0.3,0.17,0.62,0.4,0.8,0.48
					c-0.46-0.3-0.25-0.17-0.19-0.19c2.46,1.68,4.38,3.22,6.39,5.34c-0.19-0.16,0,0.08,0.03,0.16c0.6,0.61,1.2,1.38,1.69,1.9
					c-0.35-0.41-0.89-1.11-1.11-1.35c1.65,1.7,3,3.62,4.35,5.94c0.18,0.29,0.3,0.44,0.5,0.8c1.34,2.54,2.39,5.27,3.13,7.53
					c-0.04-0.02-0.02,0.12,0.06,0.4c0.09,0.23,0.24,0.71,0.34,1.02c-0.03-0.8,0.38,0.11,0.41-0.52c0.08,0.16,0.15,0.19,0.24,0.65
					c0.01-0.26,0.14,0.08,0.22,0.09c0.27,0.89,0.51,1.58,0.76,2.8c0.2,1.01,0.31,2.71,0.46,3.16c0.03-0.81-0.32-2.76-0.19-3.06
					c0.31,1.01,0.67-0.59,0.91,2.59c-0.03-0.79,0.09,0.38,0.06-0.29c0.06,0.71,0.02,0.88-0.01,1.14c0.08,0.57,0.05-0.28,0.09,0.28
					c0.07-0.02-0.03-0.21-0.04-0.57c0.03,0.03,0.04,0.23,0.07,0.28c-0.08-1.17-0.22-2.54-0.3-3.4c-0.1-0.19,0.01,0.48-0.05,0.43
					c-0.03-0.32-0.06-0.54-0.11-0.7c0.07-0.29,0.24-0.14,0.42,0.23c0.11,1.1,0.3,1.49,0.37,1.4C181,50.33,180.91,49.06,181.11,49.45
					z M180.3,48.85c-0.01,0.03-0.03-0.05-0.04-0.14c-0.08-0.41-0.01,0.14-0.06,0.01c-0.06-0.4,0.03-0.26,0.07-0.3
					C180.28,48.57,180.25,48.57,180.3,48.85z M164.35,14.11c-0.07,0.03-0.56-0.24-0.93-0.45C163.4,13.57,164,13.91,164.35,14.11z
					 M164.26,13.9c-0.16-0.05-1.35-0.6-1.23-0.62c0.62,0.3,0.49,0.18,1.09,0.51C164.09,13.8,164.14,13.83,164.26,13.9z
					 M162.98,12.58c0.17,0.14-0.52-0.23-0.35-0.09c-0.34-0.19-1.03-0.51-1.1-0.54C161.65,11.92,162.7,12.42,162.98,12.58z
					 M147.74,11.34c-0.15,0.02-1.19-0.09-0.98-0.12C147.37,11.26,147.22,11.3,147.74,11.34z M145.78,11.21
					c0.07-0.03-0.23-0.04-0.49-0.05c-0.05,0.04,0.63,0.04,0.49,0.09c-0.5-0.03-0.32,0.03-0.82,0c0.17-0.1-1.17-0.11-1.3-0.18
					c0.47-0.04,1.12,0.1,1.47,0.02c0.23,0.09,0.8,0.04,1.31,0.13C146.48,11.26,146.09,11.21,145.78,11.21z M143.49,11.09
					c-1.1,0-1.99,0.05-2.62-0.01C142.12,11.02,143.5,10.92,143.49,11.09z M138.58,11.28c-0.48,0.11-1.34,0.23-2.11,0.31
					c-0.9,0.21-2.31,0.41-3.37,0.66C134.86,11.76,136.59,11.47,138.58,11.28z M131.36,12.7c-0.15,0.05-0.13,0.02-0.17,0.01
					c-1.29,0.4-3.66,1.11-5.55,1.99c1.34-0.81,3.42-1.4,5.54-2.02C131.17,12.71,131.38,12.66,131.36,12.7z M108.44,23.34
					c-0.87,0.97-1.26,1.36-1.74,1.97c0.2-0.41,0.95-1.08,1.21-1.5C108.24,23.44,108.43,23.27,108.44,23.34z M105.81,26.41
					c-0.21,0.31-0.12,0.29-0.46,0.75c-0.03-0.02-0.3,0.38-0.26,0.24C105.2,27.2,105.65,26.58,105.81,26.41z M100.36,52.47
					c-0.02,0.65-0.1,0.24-0.12,0.96c-0.01-0.22,0-0.8,0.03-0.97C100.28,52.34,100.37,52.12,100.36,52.47z M96.75,55.61
					c0.14,0.77,0.11,2.62,0.34,4.33C96.85,58.71,96.8,57.3,96.75,55.61z M105.34,60.28c0.02-0.04,0.05,0.14,0.07,0.14
					c0.21,1.67,0.69,3.31,1.04,4.76c-0.25-0.61-0.62-2.18-0.78-2.61C105.65,62.08,105.41,61.09,105.34,60.28z M105.36,77.05
					c0.39,0.53,0.83,1.32,1.24,1.96C106.21,78.61,105.63,77.64,105.36,77.05z M109.35,86.35l0.03-0.03
					c0.81,0.96,2.88,2.74,2.95,2.97C111.56,88.56,110.31,87.42,109.35,86.35z M113.54,90.29c0.01-0.05,0.25,0.13,0.32,0.16
					c0.49,0.42,0.76,0.61,1.22,0.99C114.82,91.38,114.21,90.8,113.54,90.29z M144.9,101.24c0.41-0.11,2.5-0.13,2.97-0.29
					c0.52,0.01,1.45-0.12,2.27-0.24C148.67,101.02,145.9,101.32,144.9,101.24z M150.32,100.7c0.41-0.14,1.18-0.24,1.9-0.37
					C151.77,100.5,151.18,100.54,150.32,100.7z M178.07,62.57c0.01-0.11,0.08-0.42,0.11-0.67
					C178.23,61.96,178.19,62.32,178.07,62.57z"/>
			</g>
		</g>
	</g>
</g>
</svg>
