<?xml version="1.0" encoding="utf-8"?>
<!-- Generator: Adobe Illustrator 27.9.0, SVG Export Plug-In . SVG Version: 6.00 Build 0)  -->
<svg version="1.1" id="Layer_1" xmlns="http://www.w3.org/2000/svg" xmlns:xlink="http://www.w3.org/1999/xlink" x="0px" y="0px"
	 viewBox="0 0 103.3 36.35" style="enable-background:new 0 0 103.3 36.35;" xml:space="preserve">
<style type="text/css">
	.st0{fill:#555555;}
	.st1{fill-rule:evenodd;clip-rule:evenodd;fill:#555555;}
</style>
<g>
	<g>
		<g>
			<g>
				<g>
					<path class="st0" d="M35.21,31.77v-2.39h0.53l0.75,1.85l0.74-1.85h0.52v2.39H37.4l0.01-2.02l-0.8,2.02h-0.25l-0.8-2.02
						l0.01,2.02H35.21z"/>
					<path class="st0" d="M39.24,31.77h-0.42l0.99-2.39h0.35l0.97,2.39h-0.42l-0.23-0.57h-1.03L39.24,31.77z M39.97,29.82
						l-0.41,1.08h0.82L39.97,29.82z"/>
					<path class="st0" d="M43.82,31.19l-0.01-1.82h0.37v2.39h-0.35l-1.26-1.83l0.01,1.83h-0.37v-2.39h0.36L43.82,31.19z"/>
					<path class="st0" d="M45.68,31.77h-0.42l0.99-2.39h0.35l0.97,2.39h-0.42l-0.23-0.57h-1.03L45.68,31.77z M46.41,29.82L46,30.9
						h0.82L46.41,29.82z"/>
					<path class="st0" d="M50.38,30.05c-0.06-0.09-0.14-0.17-0.22-0.23c-0.14-0.1-0.31-0.16-0.51-0.16c-0.45,0-0.88,0.34-0.88,0.9
						c0,0.58,0.43,0.91,0.88,0.91c0.22,0,0.41-0.07,0.55-0.18c0.15-0.11,0.25-0.26,0.28-0.43h-1.04v-0.31h1.48
						c0,0.15-0.03,0.36-0.11,0.54c-0.22,0.48-0.72,0.71-1.17,0.71c-0.71,0-1.26-0.55-1.26-1.25c0-0.71,0.57-1.24,1.27-1.24
						c0.52,0,0.98,0.31,1.15,0.73L50.38,30.05L50.38,30.05z"/>
					<path class="st0" d="M52.09,29.37h1.35v0.34h-0.96v0.68h0.95v0.33h-0.95v0.71h0.96v0.34h-1.35V29.37z"/>
					<path class="st0" d="M54.66,31.77v-2.39h0.53l0.75,1.85l0.74-1.85h0.52v2.39h-0.35l0.01-2.02l-0.8,2.02h-0.25l-0.8-2.02
						l0.01,2.02H54.66z"/>
					<path class="st0" d="M58.48,29.37h1.35v0.34h-0.96v0.68h0.95v0.33h-0.95v0.71h0.96v0.34h-1.35V29.37z"/>
					<path class="st0" d="M62.66,31.19l-0.01-1.82h0.37v2.39h-0.35l-1.26-1.83l0.01,1.83h-0.37v-2.39h0.36L62.66,31.19z"/>
					<path class="st0" d="M64.65,29.71H64.1v-0.34h1.49v0.34h-0.55v2.06h-0.38L64.65,29.71L64.65,29.71z"/>
					<path class="st0" d="M68.71,31.06c0.03,0.36,0.28,0.43,0.41,0.43c0.21,0,0.4-0.17,0.4-0.38c0-0.27-0.23-0.33-0.54-0.44
						c-0.19-0.06-0.61-0.2-0.61-0.65c0-0.45,0.38-0.69,0.76-0.69c0.31,0,0.7,0.17,0.72,0.66h-0.38c-0.03-0.13-0.08-0.34-0.36-0.34
						c-0.2,0-0.36,0.13-0.36,0.34c0,0.23,0.18,0.29,0.57,0.43c0.3,0.13,0.58,0.28,0.58,0.67s-0.26,0.73-0.78,0.73
						c-0.48,0-0.78-0.29-0.79-0.75L68.71,31.06L68.71,31.06z"/>
					<path class="st0" d="M70.94,30.58c0-0.75,0.58-1.26,1.26-1.26c0.72,0,1.26,0.55,1.26,1.24s-0.54,1.24-1.26,1.24
						C71.47,31.81,70.94,31.25,70.94,30.58L70.94,30.58L70.94,30.58z M71.32,30.57c0,0.5,0.37,0.91,0.88,0.91
						c0.52,0,0.87-0.44,0.87-0.9c0-0.47-0.35-0.91-0.87-0.91C71.68,29.66,71.32,30.09,71.32,30.57L71.32,30.57z"/>
					<path class="st0" d="M74.64,29.37h1.25v0.34h-0.87v0.7h0.86v0.33h-0.86v1.03h-0.38V29.37z"/>
					<path class="st0" d="M77.41,29.71h-0.55v-0.34h1.49v0.34H77.8v2.06h-0.38L77.41,29.71L77.41,29.71z"/>
					<path class="st0" d="M79.24,29.37h0.39l0.47,1.87l0.47-1.87h0.29l0.48,1.88l0.47-1.88h0.39l-0.66,2.39h-0.35l-0.46-1.82
						l-0.46,1.82h-0.36L79.24,29.37z"/>
					<path class="st0" d="M83.34,31.77h-0.42l0.99-2.39h0.35l0.97,2.39h-0.42l-0.23-0.57h-1.03L83.34,31.77z M84.07,29.82
						l-0.41,1.08h0.82L84.07,29.82z"/>
					<path class="st0" d="M86.29,29.37h0.68c0.38,0,0.57,0.05,0.7,0.14c0.2,0.13,0.32,0.38,0.32,0.65c0,0.17-0.05,0.33-0.14,0.46
						c-0.12,0.17-0.28,0.23-0.46,0.26l0.57,0.89h-0.41l-0.66-1.08h0.08c0.17,0,0.37-0.01,0.48-0.1c0.11-0.1,0.17-0.24,0.17-0.39
						c0-0.16-0.08-0.32-0.2-0.4c-0.1-0.07-0.24-0.08-0.41-0.08h-0.33v2.06H86.3L86.29,29.37L86.29,29.37z"/>
					<path class="st0" d="M89.11,29.37h1.35v0.34H89.5v0.68h0.95v0.33H89.5v0.71h0.96v0.34h-1.35V29.37z"/>
				</g>
			</g>
		</g>
		<g>
			<path class="st0" d="M44.36,26.76l3.9-5.93l-3.71-5.6h3.47l2.06,3.42l1.99-3.42h3.45l-3.66,5.67l4.15,6.31h-3.47l-2.59-4.24
				l-2.46,4.24h-6.02l-3.13-5.78h0.5c0.78,0,1.44-0.07,1.85-0.32c0.37-0.24,0.68-0.81,0.68-1.47c0-0.63-0.31-1.13-0.71-1.39
				c-0.34-0.21-0.83-0.32-1.25-0.32h-1.13v9.3h-3.06v-12h3.92c1.88,0,3.04,0.34,3.71,0.86c1,0.78,1.46,1.96,1.46,3.27
				c0,0.92-0.26,1.64-0.6,2.17c-0.4,0.63-0.99,1.04-1.55,1.28L44.36,26.76"/>
			<g>
				<g>
					<g>
						<path class="st0" d="M3.35,15.23h3.11l1.64,7.79l1.76-7.79h2.35l1.76,7.82l1.64-7.82h3.09l-3.17,11.98h-2.69l-1.83-7.76
							l-1.8,7.76H6.44L3.35,15.23z"/>
					</g>
				</g>
			</g>
		</g>
		<g>
			<path class="st0" d="M57.93,23.41c0.13,1.8,1.39,2.15,2.02,2.15c1.07,0,1.99-0.84,1.99-1.91c0-1.33-1.13-1.64-2.67-2.2
				c-0.94-0.31-3.03-1-3.03-3.25c-0.02-2.23,1.89-3.45,3.77-3.45c1.54,0,3.47,0.84,3.61,3.3h-1.88c-0.13-0.65-0.42-1.68-1.8-1.68
				c-0.97,0-1.81,0.66-1.81,1.68c0,1.17,0.89,1.46,2.82,2.17c1.49,0.63,2.88,1.39,2.88,3.34s-1.31,3.63-3.87,3.63
				c-2.38,0-3.9-1.46-3.94-3.77L57.93,23.41L57.93,23.41z M73.73,26.96h-1.68v-1.54c-0.61,1.18-1.88,1.8-3.27,1.8
				c-2.83,0-4.52-2.2-4.52-4.66c0-2.69,1.96-4.66,4.52-4.66c1.75,0,2.87,0.97,3.27,1.81v-1.56h1.68V26.96z M65.95,22.58
				c0.02,1.31,0.94,3.06,3.08,3.06c1.34,0,2.3-0.74,2.74-1.75c0.19-0.4,0.29-0.86,0.31-1.31s-0.07-0.91-0.26-1.31
				c-0.42-1.02-1.41-1.81-2.82-1.81c-1.85,0-3.04,1.46-3.04,3.11L65.95,22.58L65.95,22.58z M75.55,19.46h-1.2v-1.31h1.2v-0.6
				c0-2.66,2.06-2.79,3.3-2.8v1.33c-0.57,0.02-1.62,0.02-1.62,1.55v0.52h1.62v1.31h-1.62v7.5h-1.68V19.46z M80.14,23.09
				c0.08,1.78,1.64,2.69,2.96,2.69c1.18,0,2.06-0.57,2.54-1.49h1.75c-0.42,0.97-1.04,1.7-1.78,2.19c-0.74,0.5-1.62,0.74-2.51,0.74
				c-2.88,0-4.66-2.32-4.66-4.65c0-2.53,1.98-4.68,4.65-4.68c1.26,0,2.41,0.47,3.25,1.3c1.04,1.05,1.47,2.43,1.33,3.9H80.14z
				 M86,21.77c-0.08-1.17-1.25-2.48-2.91-2.45c-1.72,0-2.83,1.25-2.91,2.45H86z M92.92,18.14l2.43,6.44l2.46-6.44h1.81l-5.37,13.37
				h-1.8l2.02-4.82l-2.85-7.24h-1.23v7.5h-1.68v-7.5h-1.59v-1.31h1.59v-3.17h1.68v3.17H92.92z"/>
			<g>
				<g>
					<g>
						<path class="st1" d="M30.65,22.6c0.26-0.4,0.53-1.08,0.6-1.68c0.02-0.11,0.03-0.27,0.04-0.36c0.03,0.11-0.07,0.54-0.06,0.63
							c0.01-0.03,0.02-0.12,0.03-0.12c-0.08,0.47-0.23,0.86-0.43,1.27c-0.13,0.27-0.35,0.57-0.38,0.66c0.01,0,0.05-0.06,0.07-0.08
							c0,0.02,0,0.02,0.03,0c0.18-0.18,0.52-0.78,0.65-1.25c0.15-0.41,0.23-1.04,0.22-1.49c-0.01-0.26-0.03-0.59-0.1-0.84
							c-0.05-0.27-0.1-0.45-0.2-0.73c0,0,0.04,0.09,0.03,0.08c0.02,0.06,0.05,0.14,0.09,0.25c0.03,0.08,0.06,0.13,0.09,0.29
							c0.02,0.02,0.03,0.05,0.04,0.03c0.03,0.12,0.05,0.24,0.07,0.33c0.09,0.62,0.05,1.45-0.21,2.22c0.01,0,0,0.02,0,0.02
							c0.02-0.05,0.03-0.09,0.06-0.15c-0.01,0.04,0.01,0,0.01-0.02c0.01-0.01,0,0.04,0,0.04c0.03-0.05,0.08-0.17,0.07-0.09
							c-0.05,0.16-0.02,0.2-0.09,0.39c0.01-0.01,0.04-0.06,0.05-0.08c-0.03,0.13-0.05,0.27,0.03,0.13c-0.01,0.03-0.03,0.1-0.03,0.11
							c0.07-0.16,0.11-0.18,0.18-0.43c0.01-0.01,0.03-0.07,0.03-0.07c-0.04,0.18-0.11,0.38-0.14,0.49c0.2-0.44,0.33-1.04,0.36-1.55
							c0.01-0.14,0.03-0.3,0.01-0.46c0.01-0.32-0.08-0.81-0.11-1.04c0.04-0.13-0.29-1.09-0.57-1.5c-0.13-0.23-0.35-0.5-0.41-0.59
							c0.37,0.42,0.76,1.14,0.95,1.78c0.01,0.04,0-0.04,0.02,0.04c0.08,0.28,0.12,0.52,0.16,0.76c0,0.09,0.02,0.2,0.03,0.35
							c0.04,0.53-0.05,1.43-0.31,2.09c-0.01,0.03,0.01,0-0.01,0.06c-0.06,0.17-0.11,0.25-0.13,0.34c0.04-0.09,0.07-0.14,0.11-0.21
							c0.19-0.51,0.24-0.65,0.31-1.1c0.02-0.05,0.04-0.26,0.05-0.37c0.05-0.43,0.03-1.01-0.07-1.47c-0.01-0.04-0.02-0.05-0.03-0.11
							c-0.18-0.72-0.33-1.08-0.69-1.67c0-0.01-0.03-0.06-0.02-0.05c0.02,0.04,0.05,0.07,0.03,0.03c-0.01,0-0.02-0.02-0.02-0.03
							c0-0.02,0.04,0.05,0.04,0.05c-0.03-0.06-0.07-0.12-0.09-0.15c0.01,0.02,0.01,0.02,0,0c-0.07-0.11-0.15-0.2-0.33-0.42
							c0-0.01,0.03,0.01-0.02-0.04c0.02,0.03-0.02-0.01-0.06-0.05c-0.07-0.08,0.02,0-0.06-0.08c-0.11-0.08-0.21-0.21-0.43-0.4
							c-0.08-0.07-0.05-0.07,0.01-0.02c0.04,0.04,0.08,0.07,0.11,0.11c0.04,0.02,0.16,0.13,0.23,0.21c0.03,0.02,0.06,0.05,0.1,0.09
							c0.11,0.12,0.31,0.36,0.43,0.53c0.05,0.06,0.13,0.17,0.11,0.12c-0.02-0.05-0.07-0.09-0.08-0.11c0,0,0-0.01-0.01-0.02
							c0.12,0.15,0.24,0.37,0.33,0.52c0.01,0.03,0,0.02,0.03,0.07c0.31,0.64,0.43,1.04,0.53,1.67c0,0.01,0.01,0.01,0.02,0.06
							c0,0.01-0.01-0.03-0.01,0c0.02,0.06-0.03-0.27-0.04-0.32c-0.01-0.03-0.01-0.01-0.01-0.04c0-0.21-0.2-0.83-0.39-1.25
							c-0.03-0.06-0.15-0.27-0.18-0.33c0.08,0.1,0.14,0.24,0.22,0.36c0.05,0.12,0.14,0.3,0.18,0.4c0.02,0.06,0.08,0.25,0.1,0.3
							c0.01,0.07,0.05,0.2,0.05,0.23c0.02,0.08,0.02,0.09,0.04,0.13c0,0.03,0.01,0.09,0.03,0.18c0-0.05,0.01-0.04,0.01-0.1
							c-0.03-0.14-0.05-0.24-0.08-0.37c-0.06-0.22-0.15-0.43-0.24-0.68c0.1,0.12,0.3,0.76,0.33,0.97c0.05,0.18,0.05,0.3,0.09,0.41
							c-0.01-0.38-0.3-1.23-0.4-1.45c0.06,0.1,0.14,0.3,0.18,0.39c0.01-0.02-0.1-0.26-0.12-0.33c0.08,0.18,0.14,0.33,0.2,0.51
							c0.01-0.03-0.08-0.26-0.09-0.25c0-0.02-0.03-0.1-0.06-0.17c0.02,0.02,0.07,0.16,0.1,0.23c0.1,0.28,0.19,0.64,0.22,0.89
							c0.01,0.01,0.04,0.11,0.04,0.08c0,0-0.01-0.01-0.01-0.04c0.02,0.04,0.02-0.11-0.04-0.31c0,0.02,0.01,0.04,0.01,0.04
							c-0.05-0.26-0.1-0.4-0.18-0.65c0.01,0,0.03,0.09,0.04,0.11c0.01,0.01,0-0.03,0.01-0.03c0.14,0.41,0.2,0.81,0.26,1.11
							c0.02,0.18,0.03,0.45,0.04,0.6c0-0.05,0-0.07,0-0.06c-0.01-0.29-0.02-0.35-0.04-0.56c0-0.03,0.01,0.01,0.02,0
							c0.05,0.34,0.07,0.64,0.07,0.89c0-0.1,0.01,0.02,0.02-0.15c0.01,0,0.01,0.03,0.01,0.08c0-0.05,0-0.08,0-0.15
							c0.01-0.04,0.01,0.02,0.02-0.02c-0.01,0.01,0-0.09,0.01-0.04c0-0.06-0.01-0.14-0.01-0.17c0-0.07,0.03-0.04,0.04,0.08
							c0.01,0.19,0,0.32,0,0.4c0.01-0.04,0-0.16,0.01-0.21c0,0.02,0,0.03,0,0.04c0-0.09-0.01-0.27,0-0.34
							c-0.01-0.01-0.01-0.09-0.01-0.11c0-0.08-0.01-0.2-0.01-0.26c0.03,0.07,0.06,0.34,0.05,0.6c0.01-0.03,0.01,0.08,0.02,0.09
							c0-0.06,0.01-0.06,0.01-0.11c0-0.41-0.07-1.05-0.25-1.65c0,0.02-0.04-0.13-0.05-0.16c-0.06-0.15-0.14-0.36-0.18-0.46
							c-0.05-0.12-0.16-0.35-0.22-0.45c-0.46-0.84-1.13-1.57-1.96-2.09c-0.23-0.14-0.5-0.29-0.76-0.41
							c-0.04-0.02-0.06-0.02-0.1-0.04c-0.09-0.04-0.21-0.08-0.32-0.13c-0.13-0.04-0.23-0.08-0.35-0.11
							c-0.02-0.01-0.24-0.06-0.19-0.05c-0.15-0.03-0.29-0.06-0.43-0.08c-0.06-0.01-0.15-0.03-0.23-0.04c-0.01,0,0.03,0.01,0,0.01
							c-0.25-0.03-0.36-0.03-0.58-0.04c-0.1,0-0.25,0.01-0.39,0.01c-0.3,0.01-0.66,0.06-0.94,0.13c-0.1,0.02-0.13,0.02-0.19,0.03
							c-0.09,0.03-0.33,0.1-0.46,0.14c-0.45,0.16-0.88,0.38-1.26,0.63c-0.62,0.4-1.2,0.98-1.6,1.57c-0.67,0.98-1,2.13-1,3.2
							c0,0.05,0.01,0.02,0.01,0.07c-0.01,0.03,0,0.11,0,0.17c0.03,0.67,0.17,1.38,0.45,2.04c0.12,0.27,0.23,0.5,0.35,0.67
							c0.03,0.05-0.02-0.03,0,0.02c0.03,0.04,0.17,0.28,0.21,0.3c0.02,0.04,0.01,0.03,0.06,0.09c0.15,0.2,0.27,0.39,0.52,0.64
							c0.02,0.01,0-0.02,0.07,0.05c0.37,0.37,0.64,0.57,1.01,0.8c0.43,0.29,0.96,0.52,1.49,0.67c0.57,0.16,1.17,0.24,1.76,0.22
							c0.04,0,0.08-0.01,0.13-0.01c0.17,0,0.3-0.02,0.45-0.04c0.35-0.05,0.74-0.14,0.98-0.23c-0.26,0.08-0.48,0.14-0.75,0.18
							c-0.32,0.06-0.67,0.09-1.04,0.08c-0.17,0-0.36-0.01-0.51-0.02c-0.99-0.08-2.12-0.54-2.79-1.07c-0.01-0.02,0.02,0,0.05,0.01
							c-0.07-0.07-0.21-0.16-0.28-0.23c-0.2-0.15-0.39-0.34-0.57-0.54c-0.05-0.05-0.12-0.13-0.14-0.16
							c0.09,0.11,0.14,0.16,0.22,0.23c-0.06-0.07-0.19-0.21-0.26-0.28c-0.09-0.12-0.16-0.19-0.23-0.28
							c-0.01-0.04-0.14-0.2-0.15-0.24c-0.09-0.13-0.23-0.37-0.22-0.39c0.12,0.2,0.34,0.57,0.53,0.79c0.06,0.08,0.13,0.14,0.18,0.21
							c0.09,0.1,0.36,0.39,0.53,0.52c0.04,0.03,0.02,0.03,0.08,0.07c0.75,0.62,1.71,1.09,2.72,1.24c0.78,0.13,1.68,0.07,2.34-0.13
							c0.2-0.04,0.46-0.14,0.7-0.24c0.05-0.02,0.08-0.04,0.15-0.08c0.09-0.04,0.08-0.03,0.15-0.07c0.03-0.02,0.07-0.04,0.05-0.04
							c-0.1,0.05-0.25,0.11-0.27,0.1c-0.21,0.09-0.37,0.14-0.55,0.2c-0.14,0.03-0.44,0.13-0.61,0.14c0.1-0.05-0.4,0.07-0.52,0.05
							c0.45-0.04,1.03-0.19,1.35-0.32c-0.12,0.03-0.19,0.05-0.34,0.1c-0.07,0.03-0.15,0.05-0.17,0.06c-0.03,0-0.1,0.02-0.12,0.03
							c-0.02,0-0.02,0-0.06,0.01c-0.21,0.05-0.58,0.11-0.8,0.11c0.04-0.01,0.25-0.02,0.29-0.04c-0.1,0.01-0.25,0.02-0.35,0.04
							c-0.02,0.01,0.07,0,0.04,0.01c-0.23,0.02-0.46,0.03-0.68,0.01c-0.01-0.01,0.11,0.01,0.13,0c-1.25-0.03-2.56-0.53-3.51-1.39
							c-0.43-0.38-0.81-0.88-1.05-1.28c-0.1-0.19-0.21-0.37-0.27-0.54c-0.11-0.2-0.24-0.58-0.34-0.98c-0.01-0.05,0-0.04-0.02-0.1
							c-0.08-0.35-0.13-0.8-0.12-1.05c0,0.04,0.01,0.06,0.01-0.02c-0.01-0.08-0.01,0.05-0.01,0c0-0.13-0.01-0.35,0.02-0.46
							c0.01,0,0,0.17,0,0.25c0.03,0,0.03-0.42,0.08-0.74c0.04-0.31,0.13-0.66,0.2-0.86c0.04-0.13,0.09-0.27,0.15-0.41
							c0.03-0.06,0.05-0.11,0.08-0.17c0.11-0.22,0.21-0.43,0.32-0.58c-0.23,0.4-0.43,0.8-0.55,1.26c0.01-0.02,0.01-0.02,0,0
							c-0.04,0.18-0.09,0.28-0.13,0.43c-0.08,0.38-0.13,0.88-0.12,1.29c-0.01-0.02,0-0.17-0.01-0.18c-0.02,0.14,0,0.41,0.03,0.7
							c0,0.04-0.01-0.01,0,0.06c0.01,0.05,0.02,0.02,0.03,0.12c-0.01-0.02-0.01,0.04,0.01,0.1c0.04,0.1,0.13,0.55,0.25,0.88
							c0.01,0.03-0.01,0.01,0,0.04c0.07,0.17,0.11,0.3,0.2,0.48c0.03,0.05,0.02,0.02,0.06,0.09c0.03,0.09,0.1,0.22,0.16,0.31
							c0.05,0.1,0.12,0.21,0.18,0.3c0.02,0.03,0.02,0.02,0.07,0.08c0.26,0.38,0.6,0.75,0.91,1.01c0.11,0.08,0.35,0.27,0.53,0.39
							c-0.1-0.08-0.4-0.29-0.43-0.35c0.01,0,0.07,0.05,0.08,0.06c-0.07-0.07-0.11-0.1-0.18-0.16c-0.23-0.21-0.6-0.59-0.75-0.83
							c-0.05-0.06-0.14-0.19-0.19-0.26c-0.03-0.05-0.04-0.07-0.07-0.13c-0.22-0.36-0.23-0.44-0.17-0.37
							c0.06,0.12,0.06,0.09,0.11,0.17c-0.01,0,0,0.01,0.01,0.04c0.02,0.03,0.04,0.04,0.05,0.06c0.21,0.33,0.33,0.49,0.6,0.81
							c0.02,0.01,0.07,0.06,0.09,0.08c-0.25-0.27-0.4-0.48-0.59-0.76c-0.06-0.12-0.23-0.41-0.29-0.57c0.03,0.06,0.07,0.12,0.07,0.12
							c0.04,0.13,0.23,0.43,0.33,0.57c0.04,0.04,0.01-0.02,0.02-0.01c0.02,0.02,0.02,0.02,0.04,0.05c0.11,0.16,0.13,0.18,0.26,0.35
							c-0.02-0.04-0.07-0.11-0.12-0.18c-0.21-0.28-0.49-0.74-0.58-0.97c-0.08-0.19-0.2-0.49-0.27-0.75
							c-0.03-0.13-0.03-0.16-0.05-0.29c-0.05-0.24-0.13-0.62-0.13-0.9c-0.01-0.04-0.01-0.17-0.02-0.24c0-0.04,0.01-0.06,0.01-0.08
							c0.01,0.06,0.02,0.22,0.02,0.3c0.01-0.02-0.01-0.25,0-0.27c0.01,0,0.01,0.03,0.01,0.06c0.01,0.43,0.09,1.08,0.27,1.58
							c0.01,0.02,0.04,0.13,0.07,0.18c0.02,0.03,0.06,0.13,0.09,0.2c0.01,0.05,0.07,0.17,0.1,0.23c-0.02-0.05-0.04-0.1-0.01-0.04
							c-0.04-0.09-0.07-0.16-0.1-0.24c-0.02-0.04-0.01-0.01-0.03-0.05c-0.01-0.02-0.01-0.04-0.01-0.06
							c-0.03-0.08-0.04-0.06-0.06-0.14c-0.02-0.09-0.07-0.21-0.1-0.34c-0.01-0.01-0.02-0.05-0.04-0.09
							c-0.03-0.14-0.06-0.32-0.1-0.46c-0.05-0.39-0.08-0.81-0.05-1.21c-0.01,0.24-0.02,0.64,0.02,0.78
							c-0.04-0.45,0.01-0.99,0.07-1.36c0.01-0.04,0.04-0.16,0.05-0.19c-0.01,0.04,0.01,0.01,0.01,0.02c0.02-0.1,0.04-0.1,0.06-0.17
							c-0.02,0.13-0.08,0.4-0.11,0.67c0.01,0.01,0.01,0,0.02-0.02c-0.01,0.1-0.01,0.11-0.02,0.19c-0.02,0.1-0.02,0.22-0.02,0.33
							c0.01-0.02,0.01,0.23,0.01,0.31c0-0.29,0-0.74,0.1-1.18c0.02-0.24,0.17-0.67,0.27-0.94c0.03-0.05,0.07-0.14,0.1-0.21
							c0,0.03,0.07-0.12,0.04-0.03c0.18-0.36,0.24-0.47,0.45-0.77c-0.04,0.08,0.16-0.23,0.23-0.28c-0.04,0.05-0.09,0.14-0.17,0.23
							c-0.01,0.03-0.05,0.09-0.06,0.12c-0.04,0.05-0.02,0-0.06,0.07c-0.12,0.18-0.13,0.25-0.23,0.41c0,0.01-0.01,0.04-0.03,0.07
							c-0.16,0.31-0.23,0.5-0.31,0.73c-0.02,0.06-0.02,0.04-0.04,0.11c-0.03,0.12-0.05,0.18-0.08,0.31c0,0.01,0.01,0.01,0,0.06
							c-0.06,0.16-0.09,0.46-0.12,0.69c-0.02,0.45-0.01,0.95,0.1,1.48c0.01,0.06,0.02,0.06,0.04,0.13c0.01,0.07,0.04,0.13,0.05,0.2
							c0.02,0.07,0.03,0.18,0.12,0.38c-0.01-0.05-0.04-0.13-0.04-0.17c-0.02-0.06-0.02-0.03-0.04-0.09
							c-0.04-0.16-0.11-0.4-0.12-0.55c0,0.01,0.01,0.05,0.02,0.04c-0.02-0.13-0.05-0.19-0.05-0.28c0.01,0.01,0.01,0.03,0.01,0.05
							c0.06,0.39,0.14,0.61,0.26,0.97c0.02,0.05,0.02,0.02,0.04,0.08c0.01,0.04,0.01,0.05,0.04,0.11c0.22,0.53,0.63,1.14,1.04,1.52
							c-0.07-0.07-0.15-0.16-0.24-0.26c-0.05-0.05-0.11-0.12-0.16-0.18c-0.27-0.35-0.54-0.81-0.68-1.21
							c0.02,0.03,0.16,0.35,0.24,0.49c0.06,0.09,0.12,0.21,0.19,0.32c0.18,0.29,0.57,0.77,0.85,1c0.02,0.02,0.03,0.04,0.07,0.07
							c0.11,0.08,0.33,0.28,0.52,0.39c0.12,0.09,0.24,0.17,0.36,0.22c0.14,0.1,0.34,0.18,0.53,0.25c0.05,0.02,0.04,0.03,0.1,0.05
							c0.08,0.01,0.28,0.1,0.34,0.1c-0.11-0.04-0.21-0.07-0.31-0.11c-0.02-0.01-0.08-0.03-0.1-0.05c-0.86-0.35-1.45-0.8-2.08-1.57
							c-0.01-0.02-0.03-0.04-0.01-0.04c-0.17-0.22-0.34-0.53-0.49-0.8c-0.05-0.13-0.15-0.34-0.17-0.43
							c-0.21-0.49-0.32-1.19-0.32-1.73c0-1.22,0.5-2.54,1.45-3.45c0.03-0.03,0.04-0.04,0.08-0.08c0.31-0.29,0.72-0.58,1.07-0.76
							c0.05-0.02,0.06-0.02,0.12-0.05c0.02-0.01,0.05-0.03,0.1-0.05c0.04-0.01,0.09-0.03,0.08-0.01c0.37-0.18,1.02-0.36,1.43-0.4
							c0.13-0.02,0.42-0.03,0.62-0.03c0.29,0,0.42,0.04,0.29,0.06c-0.06,0-0.08-0.01-0.16-0.01c-0.03,0,0,0.01-0.04,0.01
							c-0.03,0-0.01-0.01-0.05-0.01c-0.07,0.01-0.19,0.01-0.31,0.01c-0.05,0.01-0.08,0.02-0.11,0.02c0.14-0.01,0.34-0.01,0.47-0.01
							c0.01-0.01,0.04-0.01,0.09-0.01c0.28,0.03,0.75,0.08,1.1,0.19c0.05,0.02,0.11,0.03,0.16,0.04c0.17,0.06,0.68,0.26,0.85,0.39
							c0.01,0,0.02,0.01,0.05,0.02c0.01,0.01,0.04,0.03,0.02,0.03c0.07,0.04,0.1,0.07,0.12,0.08c-0.01,0.01-0.03,0,0,0.03
							c0.34,0.21,0.58,0.41,0.84,0.66c0.05,0.07,0.14,0.14,0.18,0.22c0.09,0.09,0.16,0.18,0.24,0.29c0.15,0.21,0.29,0.41,0.41,0.63
							c0.16,0.3,0.27,0.58,0.37,0.89c0.01,0.03,0.01,0.07,0.01,0.07c-0.09-0.27-0.2-0.55-0.4-0.93c-0.02-0.03-0.02-0.03-0.04-0.06
							c-0.06-0.12-0.14-0.24-0.23-0.38c-0.07-0.12-0.18-0.26-0.28-0.38c-0.19-0.23-0.42-0.47-0.63-0.62
							c-0.07-0.07-0.21-0.17-0.28-0.22c-0.44-0.28-0.76-0.48-1.28-0.64c-0.12-0.05-0.35-0.1-0.57-0.15
							c-0.05-0.02-0.26-0.05-0.33-0.05c-0.06-0.01-0.08-0.02-0.14-0.02c-0.17-0.01-0.34-0.02-0.52-0.02c-0.14,0-0.35,0.02-0.51,0.05
							c-0.38,0.04-0.83,0.17-1.05,0.27c-0.36,0.12-0.76,0.34-1.11,0.6c-0.28,0.2-0.57,0.46-0.74,0.69c-0.01,0.01,0-0.01-0.04,0.04
							c0.01,0-0.2,0.26-0.25,0.32c-0.06,0.1-0.23,0.35-0.32,0.51c0,0,0.01-0.02,0-0.02c-0.02,0.04-0.07,0.11-0.07,0.13
							c0.01-0.01,0.03-0.05,0.03-0.04c-0.04,0.07-0.04,0.08-0.07,0.12c0,0.01-0.01,0.05-0.04,0.1c-0.03,0.07-0.04,0.06-0.06,0.11
							c-0.05,0.12-0.06,0.17-0.08,0.24c-0.07,0.17-0.14,0.4-0.18,0.65c-0.01,0.05-0.02,0.05-0.04,0.12c0.01,0.01,0,0.08-0.01,0.16
							c-0.01,0-0.02,0.04-0.02,0.07c-0.03,0.27-0.06,0.72-0.01,1.15c0.01,0.04,0.02,0.07,0.03,0.09c0.02,0.15,0.05,0.3,0.08,0.45
							c-0.01-0.01,0,0.02-0.01,0.02c0.05,0.17,0.06,0.24,0.11,0.39c0.01,0,0-0.05,0.02,0.01c0,0.04,0.04,0.11,0.06,0.18
							c0.07,0.15,0.11,0.24,0.21,0.45c0.01,0.01,0.01,0,0.02,0.03c0.01,0.02,0.05,0.08,0.05,0.11c0.01,0.01,0.02,0.01,0.05,0.05
							c0.02,0.05,0.1,0.18,0.12,0.19c-0.06-0.1-0.07-0.13-0.08-0.18c0.16,0.24,0.31,0.5,0.5,0.69c0.07,0.05,0.08,0.06,0.2,0.17
							c0.08,0.08,0.18,0.17,0.21,0.18c0.01,0-0.04-0.06-0.06-0.09c0-0.01,0.02,0.01,0.02,0.01c0-0.01-0.05-0.07-0.05-0.08
							c0.01-0.05,0.45,0.35,0.74,0.54c0.14,0.08,0.29,0.18,0.4,0.22c0.42,0.21,0.77,0.32,1.27,0.41c0.04,0.01,0.03,0,0.08,0.01
							c0.2,0.04,0.32,0.03,0.48,0.04c0.09,0,0.17,0,0.23,0c0.04,0,0.06-0.01,0.1-0.01c0.19-0.01,0.43-0.03,0.66-0.08
							c0.24-0.05,0.45-0.12,0.68-0.2c0.04-0.02,0.04-0.02,0.09-0.04c0.16-0.06,0.39-0.17,0.52-0.25c0.32-0.18,0.68-0.45,0.99-0.77
							c0.04-0.05,0.08-0.1,0.14-0.16c-0.07,0.07-0.14,0.14-0.19,0.2c-0.16,0.15-0.33,0.32-0.5,0.42c0.02-0.02-0.01-0.01-0.02,0
							c-0.14,0.12-0.35,0.24-0.52,0.34c-0.05,0.03-0.06,0.02-0.1,0.05c-0.36,0.19-0.89,0.37-1.29,0.41
							c-0.06,0.01-0.04,0.01-0.1,0.02c0.02-0.01,0.02-0.01-0.02-0.01c-0.06,0.02-0.35,0.04-0.43,0.04c-0.08,0.01-0.28,0-0.36-0.01
							c-0.08,0.01-0.16,0-0.33-0.02c-0.19-0.01-0.51-0.09-0.61-0.15c-0.07-0.02-0.08-0.02-0.14-0.04c-0.2-0.08-0.4-0.14-0.55-0.22
							c-0.01,0.01,0.07,0.04,0.08,0.06c-0.05-0.02-0.12-0.05-0.17-0.07c0.04,0.01,0.03,0,0.01-0.02c-0.1-0.05-0.14-0.07-0.23-0.12
							c-0.03-0.01,0.02,0.02-0.02,0.01c-0.09-0.05,0.01-0.01-0.03-0.04c-0.08-0.04-0.4-0.28-0.4-0.26c0,0,0.06,0.05,0.04,0.04
							c-0.06-0.04-0.06-0.05-0.07-0.05c-0.04-0.03,0-0.01-0.04-0.06c-0.13-0.09-0.19-0.18-0.3-0.27c-0.02-0.02,0-0.02-0.04-0.05
							c-0.03-0.04-0.04-0.04-0.07-0.07c-0.01,0-0.01,0-0.06-0.04c-0.08-0.09-0.12-0.14-0.11-0.15c-0.13-0.14-0.25-0.31-0.3-0.42
							c0.02,0.02,0.02,0.02,0.04,0.03c0.02,0.03,0.05,0.08,0.08,0.11c-0.01,0.02,0.09,0.14,0.13,0.19c0.14,0.18,0.24,0.29,0.37,0.4
							c0.1,0.1,0.15,0.14,0.22,0.2c0.01,0,0.02,0,0.05,0.02c0.25,0.2,0.48,0.35,0.77,0.5c0.1,0.04,0.26,0.11,0.39,0.17
							c0.07,0.02,0.09,0.03,0.22,0.08c0.26,0.08,0.65,0.16,0.85,0.17c0.45,0.05,0.87,0.04,1.38-0.06c0.03-0.01,0.03-0.01,0.06-0.02
							c0.12-0.01,0.31-0.09,0.47-0.13c0.02-0.01,0.06-0.02,0.07-0.03c0.19-0.07,0.4-0.16,0.54-0.25c0.19-0.08,0.29-0.18,0.44-0.27
							c0.04-0.04,0.14-0.11,0.23-0.2c-0.01,0.01-0.03,0.03-0.02,0.03c0.23-0.18,0.44-0.39,0.55-0.55c-0.09,0.09-0.14,0.16-0.22,0.23
							c-0.02,0.03-0.16,0.17-0.17,0.16c0.09-0.07,0.09-0.09,0.11-0.12c0.1-0.08,0.16-0.18,0.23-0.26c0.09-0.09,0.23-0.27,0.27-0.35
							c-0.15,0.2-0.37,0.48-0.54,0.6c-0.01,0.02-0.04,0.05-0.09,0.09c-0.02,0.01-0.02,0.02-0.03,0.01
							c-0.04,0.03-0.04,0.04-0.06,0.06c-0.16,0.11-0.35,0.28-0.61,0.42c-0.02,0-0.06,0.02-0.04,0c0.15-0.07,0.36-0.23,0.51-0.34
							c-0.01,0,0-0.01,0.02-0.03c0.02-0.01,0.02-0.01,0.03-0.01c0.05-0.04,0.08-0.07,0.12-0.1c0.14-0.12,0.26-0.23,0.35-0.34
							c0.04-0.05,0.03-0.05,0.07-0.1c0.05-0.06,0.18-0.18,0.19-0.23c-0.02,0.01-0.1,0.12-0.11,0.13c0.02-0.03,0.1-0.12,0.09-0.13
							c-0.18,0.26-0.52,0.61-0.77,0.81c-0.57,0.43-1.09,0.67-1.74,0.82c-0.04,0.01-0.03,0-0.08,0.01c-0.15,0.05-0.33,0.04-0.57,0.06
							c-0.01-0.01-0.04-0.01-0.1-0.01c-0.08,0-0.16,0-0.22,0.01c0,0,0.02,0-0.02-0.01c-0.22-0.01-0.43-0.04-0.6-0.06
							c0,0.01,0.06,0.02,0,0.01c-0.14-0.05-0.36-0.08-0.63-0.17c-0.04-0.01-0.04-0.01-0.08-0.02c-0.37-0.13-0.88-0.42-1.21-0.67
							c-0.11-0.1-0.29-0.25-0.37-0.33c-0.02-0.03-0.03-0.04-0.06-0.07c-0.26-0.26-0.48-0.59-0.63-0.85
							c-0.02-0.04-0.03-0.06-0.05-0.1c-0.15-0.27-0.31-0.72-0.39-1.07c-0.07-0.38-0.13-0.92-0.07-1.37c0.02-0.14,0.03-0.22,0.04-0.3
							c0.01-0.03,0.01-0.04,0.02-0.08c0-0.02,0-0.05,0.01-0.07c0.01-0.02,0.01-0.01,0.02-0.06c0.04-0.17,0.1-0.35,0.12-0.44
							c0.02-0.05,0.03-0.05,0.05-0.12c0.08-0.27,0.32-0.67,0.49-0.93c0.03-0.04,0.03-0.04,0.06-0.08c0.02-0.04,0.08-0.11,0.11-0.16
							c0.09-0.09,0.2-0.23,0.31-0.33c0.28-0.29,0.65-0.55,1.02-0.75c0.17-0.08,0.42-0.2,0.52-0.24c0.03-0.01,0.03,0,0.08-0.02
							c0.5-0.18,0.94-0.24,1.46-0.24c0.01-0.01,0.04-0.01,0.08-0.01c0.09,0,0.32,0.03,0.36,0.02c-0.1-0.01-0.09-0.01-0.15-0.01
							l-0.03-0.01c0.04-0.01,0.2,0.02,0.26,0.02c0.11,0.02,0.38,0.06,0.48,0.1c-0.04-0.01-0.1-0.03-0.13-0.02
							c0.13,0.03,0.15,0.03,0.26,0.06c0.03,0.01,0.07,0.03,0.07,0.04c0.19,0.05,0.36,0.12,0.54,0.18c0.05,0.03,0.13,0.07,0.14,0.08
							c0.03,0.02-0.01,0-0.01,0.01c0.08,0.04,0.25,0.14,0.3,0.17c0.02,0.04-0.1-0.01-0.14-0.01c0.06,0.03,0.12,0.07,0.17,0.1
							c0.03,0.03-0.04,0,0.01,0.04c0.1,0.07,0.23,0.18,0.39,0.28c0.03,0.04,0.25,0.22,0.25,0.22c0.1,0.1,0.19,0.19,0.29,0.32
							c0.03,0.03,0.03,0.02,0.07,0.07c0.21,0.26,0.35,0.46,0.5,0.77c0,0.02-0.03-0.06-0.03-0.04c0.02,0.04,0.04,0.08,0.05,0.1
							c-0.01-0.01-0.01-0.03-0.01-0.03c0.09,0.16,0.16,0.32,0.21,0.5c-0.01-0.01-0.02-0.04-0.03-0.06c0.02,0.04,0.03,0.08,0.04,0.1
							c-0.02-0.06-0.01-0.03-0.01-0.03c0.11,0.34,0.17,0.62,0.2,0.96c-0.01-0.03-0.01,0.01-0.01,0.02c0.01,0.1,0.01,0.22,0.02,0.3
							c0-0.07,0-0.17-0.01-0.21c0.03,0.28,0.01,0.56-0.03,0.87c-0.01,0.04-0.01,0.06-0.01,0.11c-0.06,0.33-0.16,0.67-0.26,0.93
							c0,0-0.01,0.01-0.02,0.04c-0.01,0.03-0.03,0.08-0.04,0.12c0.06-0.08,0.03,0.04,0.08-0.02c-0.01,0.02,0,0.03-0.02,0.08
							c0.02-0.02,0.01,0.02,0.01,0.02c-0.04,0.1-0.07,0.18-0.13,0.32c-0.05,0.11-0.17,0.27-0.19,0.33c0.06-0.07,0.17-0.28,0.21-0.3
							c-0.05,0.12,0.11-0.01-0.1,0.31c0.05-0.08-0.02,0.04,0.03-0.02c-0.05,0.07-0.06,0.08-0.08,0.1c-0.04,0.06,0.02-0.02-0.01,0.03
							c0.01,0,0.01-0.02,0.04-0.06c0,0.01-0.01,0.02-0.01,0.03c0.08-0.11,0.17-0.25,0.22-0.34c0.01-0.02-0.04,0.05-0.04,0.04
							c0.02-0.03,0.03-0.05,0.04-0.07c0.03-0.02,0.03,0,0.02,0.05c-0.07,0.11-0.08,0.16-0.07,0.16
							C30.57,22.67,30.66,22.55,30.65,22.6z M30.62,22.48c0,0,0-0.01,0.01-0.02c0.02-0.04-0.01,0.01-0.01,0
							c0.02-0.04,0.02-0.02,0.03-0.02C30.63,22.46,30.63,22.45,30.62,22.48z M31.67,18.09c-0.01,0-0.04-0.06-0.05-0.11
							C31.62,17.97,31.65,18.04,31.67,18.09z M31.68,18.06c-0.01-0.02-0.08-0.15-0.07-0.15c0.04,0.07,0.03,0.05,0.06,0.13
							C31.67,18.04,31.67,18.05,31.68,18.06z M31.66,17.85c0.01,0.03-0.03-0.06-0.03-0.03c-0.02-0.04-0.06-0.12-0.06-0.13
							C31.58,17.69,31.64,17.81,31.66,17.85z M30.33,16.61c-0.02-0.01-0.1-0.1-0.08-0.08C30.3,16.58,30.28,16.57,30.33,16.61z
							 M30.16,16.46c0.01,0-0.02-0.02-0.04-0.04C30.11,16.42,30.17,16.47,30.16,16.46c-0.05-0.04-0.04-0.02-0.08-0.06
							c0.02,0-0.1-0.1-0.11-0.11c0.05,0.03,0.1,0.09,0.14,0.11c0.02,0.02,0.07,0.06,0.11,0.11C30.22,16.52,30.19,16.48,30.16,16.46z
							 M29.95,16.28c-0.1-0.08-0.19-0.14-0.24-0.19C29.83,16.17,29.97,16.27,29.95,16.28z M29.48,15.94
							c-0.05-0.02-0.14-0.08-0.22-0.12c-0.1-0.05-0.24-0.13-0.36-0.18C29.1,15.71,29.28,15.81,29.48,15.94z M28.71,15.54
							c-0.02-0.01-0.01-0.01-0.02-0.01c-0.15-0.06-0.42-0.16-0.66-0.22c0.18,0.02,0.42,0.12,0.66,0.22
							C28.69,15.53,28.71,15.54,28.71,15.54z M25.8,14.86c-0.15,0.03-0.22,0.03-0.31,0.06c0.05-0.02,0.17-0.03,0.22-0.05
							C25.77,14.85,25.8,14.85,25.8,14.86z M25.33,14.95c-0.04,0.01-0.03,0.02-0.1,0.04c0,0-0.05,0.01-0.04,0
							C25.22,14.98,25.3,14.96,25.33,14.95z M22.92,16.98c-0.05,0.06-0.03,0.01-0.08,0.08C22.85,17.04,22.89,16.98,22.92,16.98
							C22.92,16.96,22.94,16.94,22.92,16.98z M22.35,17c-0.04,0.08-0.18,0.25-0.29,0.43C22.13,17.3,22.23,17.17,22.35,17z
							 M22.81,18.07c0.01,0-0.01,0.02,0,0.02c-0.1,0.17-0.18,0.36-0.25,0.52c0.02-0.08,0.1-0.25,0.12-0.3
							C22.71,18.26,22.76,18.15,22.81,18.07z M21.58,19.63c0,0.08-0.02,0.18-0.03,0.27C21.55,19.84,21.57,19.7,21.58,19.63z
							 M21.28,20.78L21.28,20.78c0.01,0.15,0.07,0.46,0.06,0.49C21.32,21.15,21.29,20.95,21.28,20.78z M21.38,21.46
							c0,0,0.01,0.03,0.02,0.04c0.01,0.08,0.03,0.11,0.04,0.18C21.42,21.65,21.4,21.55,21.38,21.46z M23.49,24.77
							c0.05,0.02,0.24,0.17,0.3,0.19c0.05,0.04,0.14,0.1,0.23,0.14C23.86,25.02,23.58,24.85,23.49,24.77z M24.04,25.11
							c0.05,0.02,0.13,0.06,0.2,0.1C24.19,25.2,24.13,25.16,24.04,25.11z M29.41,23.6c0.01-0.01,0.04-0.03,0.06-0.05
							C29.46,23.55,29.43,23.58,29.41,23.6z"/>
					</g>
				</g>
				<g>
					<g>
						<path class="st1" d="M33.52,19.43c-0.07-0.7-0.38-1.76-0.84-2.53c-0.09-0.15-0.21-0.35-0.28-0.46c0.14,0.1,0.42,0.7,0.51,0.8
							c-0.02-0.05-0.08-0.15-0.07-0.17c0.34,0.62,0.53,1.21,0.66,1.88c0.1,0.44,0.12,0.99,0.16,1.12c0.01-0.01,0-0.11,0-0.15
							c0.01,0.02,0.02,0.02,0.03-0.03c0.05-0.38-0.11-1.39-0.39-2.07c-0.21-0.62-0.69-1.44-1.12-1.95c-0.26-0.3-0.57-0.66-0.89-0.89
							c-0.3-0.28-0.52-0.43-0.91-0.67c0.01,0,0.13,0.07,0.11,0.07c0.08,0.04,0.19,0.11,0.33,0.21c0.11,0.07,0.19,0.1,0.37,0.25
							c0.04,0.01,0.08,0.03,0.07,0c0.15,0.11,0.28,0.23,0.39,0.32c0.68,0.65,1.4,1.65,1.79,2.8c0-0.01,0.02,0.03,0.02,0.02
							c-0.02-0.08-0.04-0.13-0.07-0.23c0.03,0.05,0-0.01,0-0.03c0-0.03,0.03,0.04,0.04,0.04c-0.01-0.08-0.07-0.27,0-0.17
							c0.09,0.23,0.16,0.24,0.26,0.54c0-0.03-0.01-0.1-0.01-0.14c0.09,0.18,0.19,0.37,0.15,0.13c0.02,0.04,0.05,0.14,0.07,0.15
							c-0.06-0.25-0.04-0.32-0.18-0.68c0-0.02-0.04-0.11-0.02-0.11c0.12,0.25,0.22,0.54,0.29,0.7c-0.17-0.71-0.57-1.53-1-2.15
							c-0.12-0.18-0.25-0.38-0.41-0.55c-0.28-0.39-0.84-0.88-1.09-1.11c-0.08-0.19-1.34-1.01-2.06-1.23
							c-0.36-0.15-0.87-0.26-1.02-0.31c0.82,0.15,1.94,0.63,2.75,1.21c0.05,0.03-0.04-0.05,0.06,0.02c0.36,0.25,0.63,0.5,0.89,0.74
							c0.08,0.1,0.2,0.21,0.36,0.38c0.54,0.58,1.26,1.71,1.56,2.73c0.02,0.05,0.02-0.01,0.04,0.08c0.09,0.25,0.1,0.39,0.16,0.52
							c-0.03-0.14-0.04-0.23-0.07-0.34c-0.25-0.77-0.32-0.97-0.65-1.57c-0.03-0.08-0.19-0.35-0.28-0.48
							c-0.33-0.55-0.89-1.21-1.44-1.66c-0.05-0.04-0.07-0.05-0.14-0.1c-0.88-0.68-1.38-0.96-2.34-1.32C29.3,13.03,29.22,13,29.23,13
							c0.06,0.02,0.13,0.04,0.06,0.01c-0.01,0-0.05-0.01-0.06-0.02c-0.02-0.02,0.09,0.03,0.09,0.02c-0.09-0.04-0.18-0.08-0.24-0.09
							c0.03,0.01,0.03,0.02,0,0.01c-0.19-0.07-0.36-0.1-0.76-0.18c-0.01-0.01,0.04-0.01-0.06-0.02c0.05,0.02-0.03,0.01-0.12-0.01
							C28,12.69,28.16,12.7,28,12.68c-0.2,0-0.43-0.05-0.87-0.06c-0.15-0.01-0.12-0.03,0-0.03c0.09,0.01,0.15,0.01,0.23,0.02
							c0.07,0,0.3,0.01,0.46,0.04c0.05,0,0.11,0.01,0.2,0.02c0.23,0.04,0.7,0.13,1,0.22c0.11,0.02,0.3,0.08,0.23,0.04
							c-0.07-0.04-0.16-0.04-0.2-0.06c0,0,0-0.01-0.02-0.02c0.28,0.06,0.61,0.21,0.86,0.3c0.04,0.02,0.03,0.02,0.1,0.06
							c0.95,0.46,1.45,0.82,2.16,1.46c0.01,0,0.02,0,0.07,0.05c0,0.01-0.04-0.02-0.01,0.01c0.08,0.05-0.28-0.29-0.34-0.33
							c-0.04-0.03-0.02-0.01-0.05-0.03c-0.19-0.24-0.99-0.79-1.61-1.1c-0.09-0.04-0.42-0.18-0.52-0.22
							c0.19,0.05,0.39,0.14,0.58,0.22c0.17,0.09,0.43,0.22,0.58,0.3c0.07,0.05,0.32,0.22,0.4,0.26c0.08,0.08,0.24,0.18,0.27,0.23
							c0.1,0.08,0.11,0.08,0.17,0.12c0.02,0.03,0.1,0.09,0.2,0.18c-0.05-0.06-0.02-0.06-0.09-0.12c-0.17-0.14-0.27-0.23-0.44-0.36
							c-0.27-0.2-0.57-0.37-0.91-0.57c0.22,0.05,1.05,0.62,1.27,0.83c0.23,0.17,0.33,0.3,0.48,0.4c-0.35-0.44-1.48-1.15-1.8-1.33
							c0.17,0.06,0.45,0.23,0.57,0.29c-0.01-0.03-0.36-0.21-0.44-0.27c0.26,0.14,0.47,0.27,0.7,0.42c-0.02-0.04-0.33-0.23-0.33-0.21
							c-0.02-0.02-0.13-0.08-0.23-0.15c0.04,0,0.23,0.12,0.32,0.18c0.38,0.23,0.82,0.58,1.08,0.83c0.02,0,0.15,0.1,0.11,0.06
							c-0.01,0-0.01,0-0.05-0.04c0.06,0.02-0.08-0.15-0.32-0.33c0.02,0.02,0.05,0.04,0.05,0.04c-0.3-0.26-0.49-0.38-0.81-0.6
							c0.01-0.01,0.12,0.08,0.16,0.09c0.03,0-0.02-0.04-0.01-0.04c0.54,0.35,0.98,0.76,1.32,1.06c0.19,0.19,0.45,0.5,0.6,0.66
							c-0.05-0.06-0.07-0.09-0.05-0.08c-0.28-0.33-0.35-0.39-0.56-0.62c-0.02-0.03,0.03,0,0.02-0.02c0.37,0.35,0.67,0.69,0.9,0.98
							c-0.08-0.11,0.03,0.02-0.11-0.19c0.01,0,0.04,0.03,0.09,0.09c-0.05-0.06-0.07-0.09-0.14-0.17c-0.03-0.05,0.03,0.01,0-0.04
							c-0.01,0.02-0.08-0.11-0.03-0.05c-0.06-0.07-0.14-0.15-0.17-0.19c-0.06-0.08,0-0.08,0.13,0.06c0.19,0.22,0.29,0.38,0.37,0.47
							c-0.03-0.06-0.14-0.19-0.18-0.26c0.02,0.03,0.03,0.04,0.04,0.05c-0.08-0.1-0.26-0.31-0.32-0.4c-0.01-0.01-0.09-0.1-0.11-0.11
							c-0.08-0.1-0.19-0.23-0.24-0.3c0.1,0.05,0.38,0.34,0.61,0.65c-0.01-0.04,0.09,0.09,0.1,0.09c-0.06-0.07-0.04-0.08-0.09-0.13
							c-0.38-0.48-1.04-1.17-1.81-1.71c0.02,0.03-0.17-0.11-0.21-0.15c-0.21-0.13-0.49-0.3-0.64-0.37c-0.16-0.1-0.51-0.26-0.67-0.32
							c-1.32-0.56-2.77-0.79-4.21-0.65c-0.39,0.05-0.85,0.12-1.27,0.23c-0.06,0.02-0.09,0.03-0.15,0.05
							c-0.15,0.04-0.32,0.09-0.49,0.15c-0.2,0.07-0.35,0.12-0.51,0.19c-0.03,0.01-0.34,0.15-0.27,0.12c-0.2,0.1-0.4,0.2-0.57,0.3
							c-0.09,0.04-0.21,0.11-0.31,0.17c-0.01,0.01,0.04-0.02,0.01,0.01c-0.32,0.19-0.44,0.29-0.72,0.48
							c-0.11,0.1-0.28,0.24-0.44,0.38c-0.34,0.29-0.72,0.68-0.98,1.02c-0.1,0.11-0.13,0.14-0.2,0.22c-0.08,0.12-0.3,0.42-0.4,0.58
							c-0.38,0.6-0.68,1.25-0.9,1.89c-0.36,1.04-0.5,2.25-0.42,3.31c0.11,1.76,0.8,3.41,1.77,4.66c0.04,0.06,0.03,0.02,0.07,0.07
							c0.02,0.04,0.1,0.13,0.15,0.21c0.65,0.76,1.47,1.45,2.41,1.97c0.39,0.21,0.73,0.38,1.02,0.47c0.08,0.04-0.06-0.01,0.02,0.03
							c0.07,0.02,0.46,0.17,0.52,0.17c0.06,0.02,0.05,0.03,0.15,0.06c0.36,0.1,0.68,0.2,1.2,0.27c0.04,0-0.01-0.02,0.13-0.01
							c0.77,0.09,1.28,0.08,1.92,0.01c0.76-0.05,1.6-0.27,2.36-0.58c0.81-0.34,1.59-0.8,2.27-1.37c0.05-0.04,0.08-0.08,0.14-0.13
							c0.2-0.16,0.33-0.3,0.48-0.46c0.37-0.38,0.74-0.83,0.94-1.17c-0.23,0.33-0.43,0.61-0.71,0.9c-0.33,0.36-0.71,0.72-1.15,1.06
							c-0.2,0.16-0.42,0.32-0.62,0.45c-1.22,0.82-2.98,1.33-4.25,1.32c-0.02-0.02,0.02-0.02,0.06-0.04c-0.15-0.01-0.39,0-0.54-0.02
							c-0.37,0-0.77-0.04-1.17-0.11c-0.11-0.02-0.26-0.04-0.31-0.06c0.21,0.04,0.31,0.05,0.47,0.08c-0.13-0.03-0.42-0.07-0.56-0.09
							c-0.22-0.05-0.36-0.08-0.52-0.12c-0.05-0.03-0.34-0.11-0.39-0.14c-0.22-0.07-0.61-0.22-0.61-0.26
							c0.32,0.13,0.92,0.35,1.35,0.44c0.14,0.03,0.28,0.05,0.4,0.09c0.2,0.03,0.78,0.12,1.1,0.11c0.07,0,0.06,0.01,0.16,0.02
							c1.45,0.04,3-0.3,4.33-1.05c1.03-0.56,2.03-1.46,2.62-2.31c0.19-0.23,0.4-0.58,0.6-0.92c0.04-0.07,0.05-0.12,0.11-0.23
							c0.06-0.13,0.07-0.1,0.12-0.22c0.02-0.05,0.04-0.12,0.02-0.1c-0.07,0.14-0.2,0.36-0.23,0.38c-0.16,0.3-0.31,0.51-0.45,0.74
							c-0.13,0.16-0.4,0.55-0.58,0.73c0.08-0.15-0.41,0.45-0.56,0.54c0.48-0.46,1.03-1.17,1.28-1.61c-0.1,0.15-0.18,0.24-0.31,0.42
							c-0.06,0.1-0.14,0.2-0.15,0.24c-0.03,0.03-0.1,0.11-0.12,0.14c-0.02,0.02-0.03,0.02-0.07,0.07c-0.2,0.25-0.59,0.66-0.83,0.86
							c0.04-0.05,0.27-0.25,0.3-0.31c-0.1,0.1-0.27,0.26-0.38,0.36c-0.02,0.03,0.08-0.07,0.05-0.03c-0.25,0.23-0.51,0.45-0.79,0.64
							c-0.02,0,0.14-0.1,0.15-0.11c-1.49,1.11-3.48,1.73-5.39,1.6c-0.85-0.05-1.76-0.28-2.41-0.53c-0.29-0.13-0.58-0.24-0.82-0.38
							c-0.32-0.13-0.82-0.46-1.3-0.83c-0.06-0.05-0.04-0.04-0.12-0.1c-0.42-0.33-0.88-0.82-1.11-1.11c0.05,0.05,0.07,0.06-0.01-0.03
							s0.04,0.07-0.01,0.01c-0.12-0.15-0.33-0.4-0.4-0.55c0.01-0.01,0.15,0.2,0.23,0.29c0.04-0.03-0.36-0.52-0.59-0.94
							c-0.23-0.4-0.45-0.89-0.55-1.2c-0.07-0.2-0.15-0.4-0.21-0.61c-0.02-0.09-0.04-0.18-0.06-0.27c-0.08-0.36-0.16-0.7-0.17-0.97
							c0.1,0.69,0.23,1.34,0.51,1.98c-0.01-0.03-0.01-0.04,0.01,0c0.12,0.25,0.15,0.41,0.25,0.63c0.26,0.51,0.65,1.14,1.05,1.62
							c-0.03-0.02-0.16-0.19-0.18-0.21c0.1,0.18,0.38,0.48,0.68,0.79c0.04,0.04-0.02,0,0.06,0.08c0.06,0.05,0.04,0.01,0.14,0.12
							c-0.03-0.01,0.03,0.05,0.1,0.12c0.14,0.09,0.66,0.53,1.09,0.8c0.03,0.03,0.01,0.02,0.04,0.05c0.23,0.13,0.4,0.24,0.67,0.37
							c0.07,0.03,0.05,0,0.15,0.05c0.12,0.08,0.32,0.17,0.48,0.21c0.14,0.07,0.33,0.13,0.49,0.19c0.06,0.02,0.05,0,0.15,0.03
							c0.65,0.2,1.39,0.33,1.99,0.35c0.21-0.01,0.66,0,0.98-0.04c-0.19,0-0.74,0.03-0.82-0.01c0.01-0.01,0.13,0,0.15-0.01
							c-0.14-0.01-0.21-0.02-0.36-0.02c-0.46-0.04-1.24-0.14-1.65-0.28c-0.11-0.02-0.34-0.09-0.47-0.13
							c-0.08-0.03-0.11-0.05-0.2-0.08c-0.58-0.21-0.67-0.31-0.54-0.28c0.18,0.09,0.15,0.05,0.28,0.1c-0.01,0,0,0.01,0.05,0.03
							c0.06,0.02,0.08,0.02,0.12,0.03c0.54,0.19,0.84,0.27,1.45,0.4c0.03,0,0.13,0.01,0.18,0.01c-0.55-0.09-0.91-0.19-1.39-0.35
							c-0.18-0.09-0.65-0.27-0.87-0.4c0.1,0.04,0.19,0.08,0.2,0.07c0.16,0.11,0.66,0.29,0.91,0.37c0.08,0.01-0.01-0.03,0.01-0.04
							c0.04,0.01,0.05,0.01,0.09,0.02c0.28,0.09,0.32,0.09,0.63,0.17c-0.06-0.02-0.18-0.07-0.31-0.1c-0.51-0.13-1.25-0.42-1.57-0.59
							c-0.27-0.15-0.68-0.39-1-0.63c-0.16-0.13-0.18-0.16-0.33-0.3c-0.27-0.23-0.72-0.61-0.98-0.93c-0.05-0.04-0.17-0.2-0.24-0.26
							c-0.03-0.04-0.05-0.08-0.06-0.1c0.06,0.06,0.23,0.24,0.3,0.32c-0.01-0.03-0.24-0.28-0.25-0.32c0-0.01,0.04,0.03,0.06,0.06
							c0.4,0.5,1.1,1.19,1.76,1.6c0.03,0.01,0.17,0.11,0.25,0.16c0.06,0.02,0.19,0.1,0.29,0.14c0.06,0.04,0.23,0.13,0.33,0.18
							c-0.07-0.04-0.14-0.08-0.05-0.04c-0.12-0.07-0.23-0.13-0.33-0.19c-0.05-0.03-0.03,0-0.08-0.03c-0.03-0.02-0.05-0.04-0.07-0.05
							c-0.11-0.07-0.1-0.04-0.21-0.11c-0.11-0.09-0.27-0.18-0.42-0.31c-0.02-0.01-0.08-0.04-0.13-0.07
							c-0.15-0.13-0.37-0.32-0.54-0.45c-0.42-0.4-0.84-0.87-1.17-1.37c0.21,0.3,0.57,0.77,0.74,0.89c-0.46-0.49-0.91-1.17-1.17-1.65
							c-0.02-0.06-0.1-0.22-0.12-0.27c0.03,0.06,0.02,0,0.03,0.02c-0.07-0.13-0.04-0.14-0.08-0.25c0.1,0.16,0.27,0.55,0.48,0.88
							c0.01,0,0.01-0.01,0.01-0.04c0.07,0.12,0.09,0.13,0.16,0.24c0.07,0.13,0.18,0.27,0.28,0.4c-0.01-0.03,0.22,0.27,0.29,0.35
							c-0.26-0.34-0.69-0.87-0.97-1.47c-0.19-0.3-0.42-0.94-0.55-1.35c-0.01-0.09-0.05-0.22-0.07-0.34
							c0.03,0.04-0.03-0.21,0.02-0.06c-0.11-0.59-0.16-0.77-0.18-1.32c0.03,0.12-0.03-0.42,0-0.54c0.01,0.1,0.03,0.24,0.02,0.42
							c0.01,0.05,0.02,0.15,0.04,0.2c0.01,0.09-0.02,0.02-0.01,0.14c0.03,0.32,0.08,0.41,0.11,0.7c0.01,0.02,0.02,0.05,0.03,0.11
							c0.1,0.51,0.19,0.8,0.32,1.14c0.03,0.08,0.01,0.06,0.05,0.16c0.07,0.17,0.11,0.26,0.19,0.44c0.01,0.01,0.02,0.01,0.05,0.07
							c0.08,0.24,0.32,0.63,0.49,0.91c0.38,0.54,0.86,1.12,1.48,1.64c0.07,0.05,0.08,0.05,0.16,0.11c0.07,0.07,0.16,0.12,0.25,0.18
							c0.08,0.07,0.2,0.19,0.48,0.34c-0.06-0.05-0.16-0.12-0.2-0.16c-0.07-0.05-0.04-0.01-0.12-0.07c-0.2-0.14-0.51-0.37-0.65-0.53
							c0.01,0,0.06,0.05,0.05,0.03c-0.15-0.13-0.23-0.18-0.31-0.28c0.01,0.01,0.04,0.02,0.07,0.05c0.43,0.39,0.72,0.59,1.2,0.9
							c0.07,0.04,0.04,0.01,0.13,0.06c0.05,0.03,0.07,0.05,0.14,0.09c0.74,0.42,1.79,0.76,2.61,0.82c-0.15-0.02-0.33-0.05-0.52-0.09
							c-0.11-0.02-0.24-0.04-0.35-0.07c-0.63-0.16-1.38-0.46-1.92-0.79c0.05,0.01,0.51,0.27,0.72,0.35c0.15,0.05,0.33,0.13,0.51,0.2
							c0.48,0.17,1.38,0.38,1.91,0.39c0.05,0.01,0.07,0.01,0.14,0.02c0.2-0.01,0.64,0.02,0.96-0.02c0.22-0.01,0.44-0.03,0.63-0.08
							c0.26-0.02,0.57-0.1,0.86-0.19c0.07-0.02,0.07-0.01,0.16-0.04c0.1-0.05,0.42-0.13,0.49-0.19c-0.16,0.05-0.31,0.1-0.46,0.16
							c-0.03,0-0.12,0.04-0.16,0.04c-1.32,0.38-2.44,0.4-3.88,0.07c-0.02-0.01-0.07-0.02-0.05-0.03c-0.39-0.1-0.89-0.31-1.31-0.49
							c-0.18-0.1-0.49-0.25-0.6-0.34c-0.7-0.39-1.47-1.1-1.97-1.73c-1.12-1.43-1.74-3.43-1.48-5.38c0.01-0.06,0-0.08,0.01-0.16
							c0.09-0.63,0.31-1.34,0.55-1.87c0.04-0.08,0.05-0.07,0.1-0.17c0.01-0.03,0.03-0.09,0.07-0.15c0.04-0.05,0.08-0.12,0.08-0.08
							c0.27-0.55,0.86-1.36,1.3-1.78c0.13-0.14,0.46-0.42,0.7-0.61c0.33-0.26,0.53-0.35,0.39-0.2c-0.08,0.05-0.11,0.06-0.2,0.13
							c-0.04,0.03,0.01,0.01-0.03,0.04s-0.02,0-0.07,0.04c-0.07,0.07-0.21,0.18-0.35,0.3c-0.06,0.05-0.07,0.09-0.1,0.13
							c0.16-0.14,0.38-0.33,0.54-0.44c0.01-0.02,0.04-0.05,0.1-0.09c0.35-0.22,0.95-0.59,1.47-0.79c0.08-0.03,0.16-0.07,0.22-0.09
							c0.25-0.08,1.03-0.33,1.35-0.33c0.01-0.01,0.03-0.01,0.08-0.02c0.02,0.01,0.08,0,0.06,0.02c0.13-0.02,0.17-0.02,0.21-0.01
							c0,0.02-0.04,0.03,0.03,0.03c0.6-0.07,1.05-0.05,1.59,0c0.12,0.03,0.3,0.04,0.42,0.08c0.18,0.02,0.36,0.07,0.54,0.12
							c0.37,0.1,0.71,0.21,1.05,0.36c0.46,0.2,0.85,0.43,1.25,0.7c0.03,0.03,0.08,0.07,0.08,0.08c-0.35-0.23-0.74-0.47-1.32-0.73
							c-0.04-0.02-0.05-0.01-0.1-0.03c-0.18-0.08-0.38-0.16-0.62-0.23c-0.19-0.07-0.44-0.13-0.68-0.19
							c-0.44-0.1-0.92-0.16-1.31-0.14c-0.14-0.01-0.41-0.01-0.53-0.01c-0.77,0.08-1.32,0.14-2.08,0.43c-0.19,0.05-0.5,0.2-0.8,0.35
							c-0.07,0.02-0.35,0.18-0.44,0.25c-0.08,0.04-0.1,0.05-0.19,0.1c-0.21,0.15-0.41,0.28-0.62,0.45
							c-0.17,0.14-0.39,0.35-0.56,0.53c-0.4,0.4-0.82,0.96-0.98,1.28c-0.31,0.47-0.58,1.1-0.74,1.72c-0.14,0.49-0.24,1.07-0.23,1.49
							c0,0.03-0.01-0.01-0.01,0.08c0.02-0.01,0,0.49,0.01,0.61c0.02,0.17,0.05,0.63,0.1,0.89c0,0-0.01-0.03-0.01-0.02
							c0.01,0.06,0.03,0.19,0.04,0.21c0-0.02-0.01-0.08,0-0.08c0.02,0.11,0.03,0.13,0.04,0.21c0.01,0.02,0.03,0.07,0.04,0.15
							c0.03,0.11,0.01,0.1,0.03,0.18c0.05,0.19,0.08,0.25,0.13,0.35c0.08,0.26,0.21,0.6,0.38,0.93c0.03,0.07,0.02,0.08,0.07,0.17
							c0.02,0,0.07,0.09,0.13,0.2c-0.01,0.01,0.02,0.07,0.04,0.1c0.21,0.35,0.6,0.9,1.05,1.35c0.05,0.04,0.09,0.07,0.11,0.08
							c0.15,0.16,0.34,0.3,0.51,0.45c-0.02-0.01,0.01,0.02,0.01,0.03c0.21,0.16,0.3,0.23,0.49,0.35c0.01-0.01-0.05-0.06,0.03-0.01
							c0.03,0.04,0.14,0.09,0.24,0.16c0.23,0.11,0.35,0.18,0.66,0.33c0.02,0,0.02-0.01,0.05,0.01c0.03,0.02,0.13,0.06,0.17,0.08
							c0.03,0,0.04-0.01,0.11,0.02s0.29,0.12,0.32,0.12c-0.16-0.06-0.2-0.1-0.25-0.14c0.4,0.13,0.83,0.3,1.22,0.35
							c0.12,0,0.15-0.01,0.39,0.01c0.17,0.02,0.37,0.03,0.41,0.02c0.02-0.01-0.11-0.03-0.15-0.05c-0.01-0.01,0.03,0,0.03-0.01
							c-0.01-0.01-0.12-0.04-0.12-0.05c-0.03-0.07,0.85,0,1.36-0.05c0.24-0.03,0.5-0.06,0.67-0.11c0.68-0.13,1.19-0.33,1.86-0.69
							c0.05-0.03,0.04-0.03,0.11-0.07c0.27-0.14,0.4-0.26,0.6-0.4c0.11-0.08,0.2-0.15,0.28-0.21c0.04-0.03,0.06-0.06,0.11-0.11
							c0.21-0.19,0.48-0.43,0.7-0.7c0.24-0.28,0.41-0.55,0.62-0.86c0.04-0.06,0.02-0.06,0.07-0.13c0.14-0.22,0.3-0.56,0.38-0.77
							c0.21-0.5,0.39-1.16,0.46-1.82c0-0.1,0-0.19,0.01-0.32c-0.02,0.14-0.03,0.29-0.04,0.41c-0.05,0.32-0.09,0.69-0.2,0.95
							c0.01-0.04-0.02,0-0.03,0.02c-0.05,0.27-0.19,0.6-0.3,0.87c-0.04,0.08-0.05,0.08-0.08,0.15c-0.24,0.55-0.7,1.24-1.14,1.67
							c-0.06,0.06-0.04,0.05-0.1,0.11c0.02-0.03,0.02-0.03-0.02,0.01c-0.05,0.08-0.37,0.37-0.47,0.43
							c-0.08,0.08-0.33,0.26-0.43,0.32c-0.09,0.08-0.19,0.15-0.41,0.28c-0.22,0.16-0.69,0.36-0.85,0.39
							c-0.1,0.04-0.11,0.05-0.2,0.09c-0.31,0.08-0.6,0.2-0.85,0.25c0,0.01,0.13-0.01,0.15-0.01c-0.08,0.02-0.18,0.06-0.26,0.07
							c0.05-0.02,0.03-0.03-0.01-0.04c-0.16,0.03-0.23,0.05-0.39,0.07c-0.04,0.01,0.04,0.01-0.02,0.03c-0.15,0.02,0-0.02-0.08-0.02
							c-0.13,0.03-0.72,0.04-0.72,0.06c0,0,0.12,0.01,0.07,0.01c-0.1,0.01-0.11,0-0.13,0.01c-0.07-0.01-0.01-0.02-0.1-0.03
							c-0.23,0.01-0.39-0.04-0.59-0.04c-0.04-0.01-0.02-0.01-0.1-0.03c-0.08-0.01-0.09-0.01-0.15-0.02
							c-0.01,0.01-0.02,0.02-0.1,0.01c-0.17-0.03-0.27-0.06-0.26-0.07c-0.28-0.05-0.58-0.14-0.73-0.21c0.03,0.01,0.04,0,0.08,0
							c0.05,0.02,0.13,0.04,0.19,0.05c0.01,0.02,0.24,0.08,0.33,0.1c0.33,0.08,0.55,0.12,0.8,0.13c0.2,0.03,0.31,0.02,0.44,0.04
							c0.01-0.01,0.01-0.02,0.07-0.02c0.48,0.01,0.88-0.04,1.36-0.13c0.15-0.04,0.4-0.11,0.61-0.16c0.1-0.04,0.14-0.05,0.32-0.11
							c0.37-0.14,0.91-0.41,1.15-0.58c0.57-0.35,1.06-0.76,1.55-1.34c0.03-0.04,0.03-0.04,0.06-0.08c0.13-0.12,0.28-0.39,0.43-0.58
							c0.02-0.04,0.05-0.08,0.06-0.11c0.16-0.26,0.32-0.55,0.4-0.79c0.14-0.27,0.18-0.48,0.27-0.72c0.01-0.09,0.06-0.26,0.1-0.44
							c0,0.03-0.01,0.07,0,0.05c0.1-0.42,0.15-0.86,0.14-1.16c-0.02,0.18-0.01,0.31-0.04,0.47c0,0.06-0.02,0.35-0.05,0.35
							c0.04-0.17,0.02-0.18,0.02-0.24C33.01,21.1,33,20.94,33,20.77c0.02-0.19,0.02-0.53,0-0.66c0.01,0.37,0.01,0.9-0.08,1.2
							c0,0.04,0,0.09-0.02,0.19c-0.01,0.03-0.01,0.04-0.02,0.04c-0.01,0.07-0.01,0.08-0.01,0.12c-0.09,0.28-0.15,0.64-0.33,1.05
							c-0.02,0.02-0.05,0.08-0.04,0.03c0.12-0.22,0.22-0.6,0.28-0.87c-0.01,0-0.01-0.01-0.01-0.05c0.01-0.03,0.01-0.02,0.02-0.04
							c0.02-0.1,0.03-0.16,0.04-0.23c0.06-0.28,0.09-0.51,0.09-0.72c0-0.09-0.01-0.09-0.01-0.19c0.01-0.11,0.04-0.38,0.01-0.44
							c-0.01,0.04,0,0.23-0.02,0.26c-0.01-0.06,0-0.23-0.02-0.23c0.03,0.48-0.05,1.2-0.15,1.66c-0.27,1.03-0.66,1.79-1.28,2.55
							c-0.04,0.04-0.04,0.03-0.08,0.08c-0.13,0.2-0.35,0.35-0.61,0.59c-0.02,0-0.06,0.03-0.12,0.08c-0.09,0.08-0.18,0.15-0.25,0.21
							c0-0.01,0.03-0.02-0.02,0.01c-0.26,0.2-0.54,0.36-0.75,0.48c0,0.01,0.1-0.03,0.01,0.02c-0.2,0.07-0.5,0.24-0.89,0.37
							c-0.05,0.02-0.06,0.03-0.11,0.05c-0.55,0.19-1.42,0.32-2.03,0.32c-0.22-0.01-0.57-0.03-0.74-0.05
							c-0.05-0.01-0.08-0.02-0.14-0.03c-0.55-0.07-1.11-0.25-1.51-0.41c-0.06-0.03-0.09-0.05-0.15-0.08
							c-0.42-0.17-1.02-0.55-1.44-0.89c-0.43-0.38-1-0.96-1.33-1.54c-0.11-0.18-0.17-0.29-0.23-0.39c-0.02-0.04-0.02-0.06-0.05-0.11
							c-0.02-0.03-0.04-0.06-0.05-0.08c-0.01-0.03,0-0.02-0.03-0.09c-0.11-0.23-0.2-0.5-0.26-0.62c-0.02-0.07-0.02-0.08-0.05-0.18
							c-0.15-0.4-0.24-1.07-0.28-1.54c-0.01-0.07,0-0.07,0-0.15c-0.01-0.07-0.01-0.2-0.01-0.29c0.02-0.18,0.03-0.46,0.05-0.68
							c0.07-0.59,0.25-1.24,0.5-1.82c0.12-0.26,0.31-0.62,0.39-0.76c0.03-0.04,0.03-0.03,0.08-0.1c0.42-0.67,0.88-1.14,1.48-1.63
							c0.01-0.02,0.04-0.05,0.09-0.09c0.11-0.08,0.4-0.26,0.44-0.31c-0.12,0.08-0.11,0.07-0.18,0.12c-0.01,0-0.04,0.02-0.05,0.02
							c0.03-0.05,0.25-0.16,0.32-0.22c0.15-0.07,0.5-0.28,0.66-0.33c-0.05,0.03-0.15,0.07-0.17,0.09c0.17-0.08,0.2-0.1,0.35-0.17
							c0.04-0.01,0.11-0.03,0.12-0.02c0.26-0.12,0.53-0.19,0.8-0.29c0.09-0.02,0.22-0.05,0.24-0.04c0.05-0.01-0.01,0.01,0,0.02
							c0.13-0.02,0.42-0.06,0.51-0.07c0.07,0.03-0.13,0.08-0.18,0.12c0.1-0.01,0.2-0.03,0.29-0.04c0.06,0.01-0.04,0.03,0.05,0.04
							c0.18-0.02,0.44,0,0.71-0.02c0.07,0.01,0.49,0.03,0.5,0.02c0.21,0.03,0.39,0.05,0.63,0.1c0.07,0.01,0.05-0.01,0.14,0.01
							c0.49,0.11,0.83,0.23,1.3,0.45c0.03,0.02-0.1-0.04-0.07-0.02c0.07,0.03,0.12,0.05,0.15,0.07c-0.02-0.01-0.04-0.02-0.04-0.02
							c0.25,0.11,0.48,0.23,0.7,0.39c-0.01,0-0.06-0.04-0.08-0.04c0.05,0.03,0.11,0.07,0.14,0.08c-0.08-0.05-0.04-0.03-0.03-0.03
							c0.43,0.3,0.77,0.57,1.13,0.94c-0.03-0.03,0,0.01,0.01,0.03c0.11,0.11,0.21,0.24,0.3,0.33c-0.06-0.07-0.16-0.2-0.2-0.24
							c0.29,0.3,0.53,0.64,0.77,1.05c0.03,0.05,0.05,0.08,0.09,0.14c0.24,0.45,0.42,0.93,0.55,1.33c-0.01,0,0,0.02,0.01,0.07
							c0.02,0.04,0.04,0.12,0.06,0.18c-0.01-0.14,0.07,0.02,0.07-0.09c0.01,0.03,0.03,0.03,0.04,0.11c0-0.05,0.02,0.01,0.04,0.02
							c0.05,0.16,0.09,0.28,0.13,0.49c0.04,0.18,0.05,0.48,0.08,0.56c0.01-0.14-0.06-0.49-0.03-0.54c0.05,0.18,0.12-0.1,0.16,0.46
							c-0.01-0.14,0.02,0.07,0.01-0.05c0.01,0.13,0,0.15,0,0.2c0.01,0.1,0.01-0.05,0.02,0.05c0.01,0-0.01-0.04-0.01-0.1
							c0.01,0.01,0.01,0.04,0.01,0.05c-0.01-0.21-0.04-0.45-0.05-0.6c-0.02-0.03,0,0.08-0.01,0.08c-0.01-0.06-0.01-0.1-0.02-0.12
							c0.01-0.05,0.04-0.02,0.07,0.04c0.02,0.19,0.05,0.26,0.07,0.25C33.5,19.59,33.48,19.37,33.52,19.43z M33.38,19.33
							c0,0.01-0.01-0.01-0.01-0.02c-0.01-0.07,0,0.02-0.01,0c-0.01-0.07,0.01-0.05,0.01-0.05C33.37,19.28,33.37,19.28,33.38,19.33z
							 M30.57,13.21c-0.01,0.01-0.1-0.04-0.16-0.08C30.4,13.12,30.51,13.18,30.57,13.21z M30.55,13.17
							c-0.03-0.01-0.24-0.11-0.22-0.11c0.11,0.05,0.09,0.03,0.19,0.09C30.52,13.16,30.53,13.16,30.55,13.17z M30.33,12.94
							c0.03,0.02-0.09-0.04-0.06-0.02c-0.06-0.03-0.18-0.09-0.19-0.1C30.09,12.83,30.28,12.91,30.33,12.94z M27.64,12.72
							c-0.03,0-0.21-0.02-0.17-0.02C27.58,12.71,27.55,12.72,27.64,12.72z M27.3,12.7c0.01-0.01-0.04-0.01-0.09-0.01
							C27.2,12.7,27.32,12.7,27.3,12.7c-0.09,0-0.06,0.01-0.14,0.01c0.03-0.02-0.21-0.02-0.23-0.03c0.08-0.01,0.2,0.02,0.26,0
							c0.04,0.02,0.14,0.01,0.23,0.02C27.42,12.71,27.35,12.7,27.3,12.7z M26.9,12.68c-0.19,0-0.35,0.01-0.46,0
							C26.65,12.67,26.9,12.65,26.9,12.68z M26.03,12.71c-0.08,0.02-0.24,0.04-0.37,0.05c-0.16,0.04-0.41,0.07-0.59,0.12
							C25.38,12.8,25.68,12.75,26.03,12.71z M24.76,12.96c-0.03,0.01-0.02,0-0.03,0c-0.23,0.07-0.64,0.2-0.98,0.35
							c0.24-0.14,0.6-0.25,0.98-0.36C24.73,12.96,24.76,12.96,24.76,12.96z M20.72,14.84c-0.15,0.17-0.22,0.24-0.31,0.35
							c0.04-0.07,0.17-0.19,0.21-0.26C20.69,14.85,20.72,14.82,20.72,14.84z M20.26,15.38c-0.04,0.05-0.02,0.05-0.08,0.13
							c-0.01,0-0.05,0.07-0.05,0.04C20.15,15.52,20.23,15.41,20.26,15.38z M19.3,19.97c0,0.11-0.02,0.04-0.02,0.17
							c0-0.04,0-0.14,0.01-0.17C19.29,19.94,19.3,19.9,19.3,19.97z M18.66,20.52c0.02,0.14,0.02,0.46,0.06,0.76
							C18.68,21.06,18.67,20.82,18.66,20.52z M20.18,21.34c0-0.01,0.01,0.02,0.01,0.02c0.04,0.29,0.12,0.58,0.18,0.84
							c-0.04-0.11-0.11-0.38-0.14-0.46C20.23,21.66,20.19,21.48,20.18,21.34z M20.18,24.29c0.07,0.09,0.15,0.23,0.22,0.35
							C20.33,24.57,20.23,24.4,20.18,24.29z M20.88,25.93L20.88,25.93c0.15,0.16,0.51,0.48,0.52,0.52
							C21.27,26.32,21.05,26.12,20.88,25.93z M21.62,26.63c0-0.01,0.04,0.02,0.06,0.03c0.09,0.07,0.13,0.11,0.21,0.17
							C21.85,26.82,21.74,26.71,21.62,26.63z M27.14,28.55c0.07-0.02,0.44-0.02,0.52-0.05c0.09,0,0.26-0.02,0.4-0.04
							C27.81,28.51,27.32,28.57,27.14,28.55z M28.1,28.46c0.07-0.02,0.21-0.04,0.33-0.07C28.35,28.42,28.25,28.43,28.1,28.46z
							 M32.98,21.74c0-0.02,0.01-0.07,0.02-0.12C33.01,21.64,33.01,21.7,32.98,21.74z"/>
					</g>
				</g>
			</g>
		</g>
	</g>
</g>
<g>
	<g>
		<path class="st0" d="M3.27,8.96V4.74h1.58c0.32,0,0.6,0.06,0.82,0.18s0.39,0.29,0.5,0.5s0.17,0.45,0.17,0.72S6.28,6.65,6.17,6.86
			s-0.28,0.38-0.5,0.5s-0.5,0.18-0.82,0.18H3.8V6.91h0.95c0.19,0,0.34-0.03,0.47-0.1c0.12-0.07,0.21-0.16,0.27-0.27
			c0.06-0.12,0.09-0.25,0.09-0.4s-0.03-0.28-0.09-0.4c-0.06-0.11-0.15-0.2-0.27-0.27c-0.12-0.06-0.28-0.1-0.47-0.1h-0.7v3.58H3.27
			V8.96z"/>
		<path class="st0" d="M8.31,9.02c-0.31,0-0.58-0.07-0.8-0.2c-0.23-0.14-0.4-0.33-0.53-0.57C6.86,8.01,6.79,7.72,6.79,7.39
			s0.06-0.61,0.19-0.86c0.12-0.25,0.3-0.44,0.53-0.57s0.49-0.2,0.8-0.2s0.58,0.07,0.8,0.2s0.4,0.33,0.53,0.57
			c0.12,0.25,0.19,0.53,0.19,0.86S9.77,8,9.64,8.25C9.52,8.5,9.34,8.68,9.11,8.82C8.88,8.95,8.61,9.02,8.31,9.02z M8.31,8.42
			c0.17,0,0.31-0.05,0.42-0.14c0.11-0.09,0.2-0.22,0.25-0.37c0.06-0.16,0.08-0.33,0.08-0.52S9.03,7.02,8.98,6.86
			S8.84,6.58,8.73,6.48C8.62,6.39,8.48,6.34,8.31,6.34S8,6.39,7.88,6.48C7.77,6.57,7.68,6.7,7.63,6.86S7.55,7.19,7.55,7.39
			c0,0.19,0.03,0.37,0.08,0.52c0.06,0.16,0.14,0.28,0.25,0.37S8.14,8.42,8.31,8.42z"/>
		<path class="st0" d="M11.02,8.96L10.13,5.8h0.76l0.56,2.22h0.03l0.57-2.22h0.75l0.57,2.21h0.03l0.55-2.21h0.76l-0.9,3.16h-0.78
			l-0.59-2.14H12.4l-0.59,2.14H11.02z"/>
		<path class="st0" d="M16.54,9.02c-0.32,0-0.59-0.07-0.82-0.2c-0.23-0.13-0.41-0.32-0.53-0.56S15,7.73,15,7.4s0.06-0.61,0.19-0.86
			c0.12-0.25,0.3-0.44,0.52-0.58c0.22-0.14,0.49-0.21,0.79-0.21c0.19,0,0.38,0.03,0.55,0.09S17.38,6,17.51,6.13s0.24,0.3,0.32,0.5
			s0.12,0.44,0.12,0.72v0.23h-2.59v-0.5h1.87c0-0.14-0.03-0.27-0.09-0.38C17.08,6.59,17,6.5,16.89,6.44s-0.23-0.1-0.38-0.1
			c-0.15,0-0.29,0.04-0.4,0.11s-0.2,0.17-0.27,0.29c-0.06,0.12-0.1,0.25-0.1,0.39v0.44c0,0.18,0.03,0.34,0.1,0.47
			s0.16,0.23,0.28,0.3c0.12,0.07,0.26,0.1,0.42,0.1c0.11,0,0.21-0.02,0.29-0.05s0.16-0.08,0.23-0.14s0.11-0.14,0.15-0.22l0.7,0.08
			c-0.04,0.18-0.13,0.34-0.25,0.48s-0.28,0.24-0.47,0.32C17,8.98,16.78,9.02,16.54,9.02z"/>
		<path class="st0" d="M18.57,8.96V5.8h0.72v0.53h0.03c0.06-0.18,0.16-0.32,0.3-0.42s0.3-0.15,0.48-0.15c0.04,0,0.09,0,0.14,0
			s0.09,0.01,0.13,0.02v0.69c-0.03-0.01-0.08-0.02-0.15-0.03c-0.07-0.01-0.13-0.01-0.2-0.01c-0.14,0-0.26,0.03-0.37,0.09
			s-0.19,0.14-0.25,0.24c-0.06,0.1-0.09,0.22-0.09,0.36v1.86h-0.74V8.96z"/>
		<path class="st0" d="M22.14,9.02c-0.32,0-0.59-0.07-0.82-0.2c-0.23-0.13-0.41-0.32-0.53-0.56S20.6,7.73,20.6,7.4
			s0.06-0.61,0.19-0.86c0.12-0.25,0.3-0.44,0.52-0.58c0.22-0.14,0.49-0.21,0.79-0.21c0.19,0,0.38,0.03,0.55,0.09S22.98,6,23.11,6.13
			s0.24,0.3,0.32,0.5s0.12,0.44,0.12,0.72v0.23h-2.59v-0.5h1.88c0-0.14-0.03-0.27-0.09-0.38c-0.06-0.11-0.14-0.2-0.25-0.26
			s-0.23-0.1-0.38-0.1c-0.15,0-0.29,0.04-0.4,0.11s-0.2,0.17-0.27,0.29c-0.06,0.12-0.1,0.25-0.1,0.39v0.44
			c0,0.18,0.03,0.34,0.1,0.47s0.16,0.23,0.28,0.3c0.12,0.07,0.26,0.1,0.42,0.1c0.11,0,0.21-0.02,0.29-0.05s0.16-0.08,0.23-0.14
			s0.11-0.14,0.15-0.22l0.7,0.08c-0.04,0.18-0.13,0.34-0.25,0.48s-0.28,0.24-0.47,0.32C22.61,8.98,22.39,9.02,22.14,9.02z"/>
		<path class="st0" d="M25.35,9.01c-0.25,0-0.47-0.06-0.67-0.19s-0.35-0.31-0.46-0.56c-0.11-0.24-0.17-0.54-0.17-0.88
			c0-0.35,0.06-0.65,0.17-0.89c0.12-0.24,0.27-0.42,0.47-0.55c0.2-0.12,0.42-0.19,0.66-0.19c0.19,0,0.34,0.03,0.46,0.09
			s0.21,0.14,0.28,0.22c0.07,0.09,0.12,0.17,0.16,0.25h0.03V4.73h0.75v4.22H26.3v-0.5h-0.04c-0.04,0.08-0.09,0.16-0.17,0.24
			c-0.07,0.08-0.17,0.16-0.29,0.22C25.68,8.98,25.53,9.01,25.35,9.01z M25.56,8.4c0.16,0,0.29-0.04,0.4-0.13s0.2-0.21,0.25-0.36
			c0.06-0.15,0.09-0.33,0.09-0.54c0-0.2-0.03-0.38-0.09-0.53s-0.14-0.27-0.25-0.35c-0.11-0.08-0.25-0.12-0.41-0.12
			c-0.17,0-0.3,0.04-0.42,0.13c-0.11,0.09-0.2,0.21-0.25,0.36c-0.06,0.15-0.08,0.33-0.08,0.52c0,0.2,0.03,0.37,0.08,0.53
			c0.06,0.15,0.14,0.28,0.25,0.37C25.26,8.36,25.4,8.4,25.56,8.4z"/>
		<path class="st0" d="M29.31,8.96V4.74h0.75v1.58h0.03c0.04-0.08,0.09-0.16,0.16-0.25s0.17-0.16,0.28-0.22
			c0.12-0.06,0.27-0.09,0.46-0.09c0.24,0,0.46,0.06,0.66,0.19c0.2,0.12,0.35,0.31,0.47,0.55s0.17,0.54,0.17,0.89
			s-0.06,0.64-0.17,0.88s-0.27,0.43-0.47,0.56s-0.42,0.19-0.67,0.19c-0.18,0-0.33-0.03-0.45-0.09s-0.21-0.13-0.29-0.22
			c-0.07-0.09-0.13-0.17-0.17-0.24h-0.04v0.5h-0.72V8.96z M30.04,7.38c0,0.21,0.03,0.38,0.09,0.54c0.06,0.15,0.14,0.27,0.25,0.36
			s0.25,0.13,0.4,0.13c0.17,0,0.3-0.04,0.41-0.13s0.2-0.21,0.25-0.37s0.09-0.33,0.09-0.53s-0.03-0.37-0.08-0.52S31.31,6.59,31.2,6.5
			s-0.25-0.13-0.42-0.13c-0.16,0-0.29,0.04-0.41,0.12c-0.11,0.08-0.2,0.2-0.25,0.35S30.04,7.17,30.04,7.38z"/>
		<path class="st0" d="M33.28,10.14c-0.1,0-0.2-0.01-0.28-0.02c-0.09-0.02-0.15-0.03-0.21-0.05l0.17-0.58
			c0.11,0.03,0.21,0.05,0.29,0.04c0.08,0,0.16-0.03,0.23-0.08s0.12-0.14,0.17-0.26l0.06-0.17l-1.15-3.23h0.79l0.73,2.39h0.03
			l0.73-2.39h0.79l-1.27,3.55c-0.06,0.17-0.14,0.31-0.23,0.43c-0.1,0.12-0.22,0.21-0.36,0.28C33.65,10.11,33.48,10.14,33.28,10.14z"
			/>
	</g>
</g>
</svg>
